<?xml version="1.0" encoding="utf-8"?>
<!-- Svg Vector Icons : http://www.onlinewebfonts.com/icon -->
<!DOCTYPE svg PUBLIC "-//W3C//DTD SVG 1.1//EN" "http://www.w3.org/Graphics/SVG/1.1/DTD/svg11.dtd">
<svg version="1.1" xmlns="http://www.w3.org/2000/svg" xmlns:xlink="http://www.w3.org/1999/xlink" x="0px" y="0px" viewBox="0 0 1000 1000" enable-background="new 0 0 1000 1000" xml:space="preserve">
<metadata> Svg Vector Icons : http://www.onlinewebfonts.com/icon </metadata>
<g><g transform="translate(0.000000,511.000000) scale(0.100000,-0.100000)"><path d="M5654.2,4999c-8.1-12.2-2-30.4,10.1-38.6c14.2-8.1,22.3-22.3,18.2-34.5c-4-12.2,16.3-40.6,44.7-64.9l50.7-42.6l-79.2,32.5c-69,28.4-77.1,28.4-67,0c8.1-20.3,2-26.4-18.3-18.3c-16.3,6.1-28.4-2-28.4-20.3c0-34.5-36.5-67-52.8-48.7c-6.1,6.1-2.1,28.4,10.1,50.7c12.2,22.3,16.2,54.8,10.1,71c-18.3,48.7-109.6-4-109.6-62.9c0-30.4-10.1-44.7-24.4-38.6c-14.2,4.1-24.4,28.4-20.3,54.8l4.1,44.7l-38.6-46.7c-34.5-44.7-34.5-48.7-4.1-73.1c30.4-22.3,30.4-24.3-2-26.4c-20.3,0-36.5-10.1-36.5-20.3c0-12.2,20.3-16.2,48.7-8.1c40.6,10.2,48.7,4,44.6-26.4c-4.1-20.3,4.1-42.6,16.3-50.7c12.2-8.1-10.1-16.2-48.7-16.2c-60.9-2-67-4.1-38.6-26.4c26.4-20.3,28.4-30.4,8.1-48.7c-18.3-16.2-32.5-16.2-46.7-2c-38.6,38.6-67-67-30.4-109.6c20.3-22.3,22.3-36.5,8.1-46.7c-12.2-6.1-22.3-36.5-22.3-65c0-40.6,8.1-48.7,40.6-40.6c54.8,14.2,79.2-73.1,34.5-123.8c-18.3-18.3-36.5-58.9-44.7-87.3c-12.2-48.7-6.1-54.8,60.9-67c46.7-10.1,85.3-6.1,103.5,10.2c16.3,12.2,36.6,18.3,44.7,10.2c8.1-8.1-8.1-32.5-34.5-54.8c-44.6-36.5-46.7-38.6-4-38.6c26.4,0,38.6-10.2,30.4-28.4c-18.3-48.7,48.7-50.7,99.4-4.1c28.4,26.4,67,52.8,85.2,60.9c36.5,12.2,306.5-58.9,318.7-85.2c10.2-22.3,168.5-125.8,190.8-125.8c12.2,0,34.5-22.3,48.7-50.7c14.2-28.4,40.6-50.7,56.8-50.7c22.3,0,24.4,6.1,6.1,28.4c-18.3,22.3-12.2,28.4,32.5,28.4c30.4,0,67-14.2,83.2-28.4c14.2-16.2,40.6-28.4,56.8-28.4s28.4-8.1,28.4-20.3c0-10.2-18.3-20.3-38.6-20.3c-22.3,0-46.7-8.1-52.8-20.3c-16.2-26.4,83.2-26.4,133.9,0c32.5,18.3,42.6,14.2,60.9-28.4c16.3-32.5,34.5-46.7,56.9-38.6c18.3,8.1,26.4,4.1,18.3-4.1c-10.2-10.1,8.1-46.7,34.5-83.2c44.6-56.8,48.7-75.1,28.4-111.6c-18.3-34.5-16.3-40.6,4-28.4c18.3,12.2,20.3,6.1,12.2-18.3c-10.2-26.4-6.1-34.5,14.2-26.4c16.3,6.1,34.5,2,40.6-12.2c4-14.2,16.2-4.1,22.3,22.3c8.1,24.4,22.3,44.7,30.4,44.7c10.2,0,8.1-30.4-2-65c-22.3-83.2-22.3-83.2,2-67c12.2,6.1,20.3-2,20.3-18.3c0-18.3,10.2-32.5,20.3-32.5c12.2,0,20.3,12.2,20.3,28.4s10.1,36.5,24.4,44.7c14.2,10.1,18.3,2,12.2-26.4c-8.1-26.4,6.1-62.9,36.5-99.4l46.7-58.9l2,58.9c0,42.6,8.1,54.8,32.5,44.7c18.3-6.1,36.5-12.2,40.6-12.2c6.1,0,0-20.3-14.2-42.6c-16.3-30.4-16.3-38.6,0-30.4c12.2,8.1,22.3,0,22.3-18.3c0-18.3,10.1-26.4,20.3-20.3c12.2,6.1,20.3,2,20.3-10.1c0-14.2,12.2-20.3,26.4-14.2c12.2,4.1,38.6-6.1,54.8-24.3c30.4-34.5,198.9-97.4,231.4-87.3c8.1,2,28.4-4,44.6-18.3c20.3-16.2,30.4-10.2,40.6,32.5c10.1,38.6,22.3,48.7,46.7,40.6c125.8-50.7,146.1-14.2,67,119.8c-24.4,40.6-44.7,83.2-44.7,93.4s-20.3,20.3-44.6,24.4c-26.4,4.1-46.7,20.3-46.7,38.6c0,18.3-12.2,46.7-28.4,64.9c-14.2,18.3-20.3,40.6-14.2,50.7c12.2,20.3-103.5,125.8-136,125.8c-8.1,0-10.1,10.1-4,20.3c8.1,12.2,4,32.5-8.1,46.7c-12.2,16.3-12.2,36.5-2,54.8c12.2,20.3,4.1,44.7-24.4,75.1c-44.7,48.7-24.4,67,22.3,22.3c50.7-52.8,10.2,119.8-44.6,194.9c-30.4,38.5-54.8,79.1-54.8,91.3c0,10.2-16.2,30.4-34.5,40.6c-34.5,20.3-34.5,20.3,0,22.3c62.9,0,50.7,176.6-22.3,308.5c-50.7,89.3-56.8,93.4-91.3,62.9c-26.4-24.3-32.5-50.7-24.4-91.3c8.1-34.5,4.1-56.8-8.1-56.8c-14.2,0-28.4,28.4-34.5,60.9c-18.3,83.2-44.7,77.1-32.5-4.1c10.1-60.9,6.1-64.9-22.3-38.6c-22.3,18.3-30.4,42.6-22.3,75.1c14.2,50.7-10.1,62.9-46.7,26.4c-12.2-12.2-34.5-16.2-46.7-8.1c-32.5,20.3,50.8,69,121.8,71c28.4,0,64.9,10.2,81.2,20.3c24.4,16.2,22.3,20.3-14.2,20.3c-24.4,0-50.7,10.1-56.8,20.3c-14.2,22.3-91.3,26.4-140.1,8.1c-18.2-6.1-26.4-20.3-20.3-30.4c6.1-10.2,0-18.3-10.2-18.3c-12.1,0-22.3,10.1-22.3,20.3c0,12.2-8.1,20.3-20.3,20.3c-10.2,0-14.2-14.2-8.1-30.4c16.3-38.5-26.4-38.5-64.9-2c-18.3,18.3-20.3,34.5-8.1,42.6c10.2,6.1,20.3,24.4,18.3,36.5c0,18.3-4.1,16.3-12.2-2c-12.1-32.5-46.7-12.2-46.7,28.4c0,16.2,10.2,24.3,20.3,18.3c12.2-6.1,26.4,2,34.5,20.3c12.2,36.5-30.4,77.1-60.9,56.8c-10.2-6.1-6.1-18.3,8.1-28.4c18.3-12.2,20.3-18.3,4.1-18.3c-38.6,0-87.3,24.4-87.3,44.6c0,10.2,8.1,14.2,16.2,8.1c10.1-6.1,18.3,2,18.3,18.3c0,18.3-18.3,24.4-58.9,20.3c-38.5-4.1-56.8,2-56.8,22.3c0,24.3-20.3,26.4-101.5,16.2c-99.5-12.2-101.5-12.2-101.5,38.5c0,46.7-8.1,52.8-81.2,50.7c-44.6,0-75.1-8.1-69-18.3c18.3-30.4-12.2-20.3-69,20.3c-81.2,56.8-192.8,109.6-178.6,85.3c8.1-12.2,0-22.3-16.3-22.3s-36.5,20.3-44.6,46.7c-14.2,42.6-14.2,42.6-28.4,4.1c-12.2-36.5-14.2-34.5-26.4,12.2C5767.8,4980.8,5676.5,5033.5,5654.2,4999z"/><path d="M5112.2,4522.1c-8.1-8.1-50.8-16.2-99.5-20.3c-103.5-10.2-170.5-60.9-134-103.5c20.3-26.4,16.2-28.4-24.4-22.3c-36.5,4.1-48.7-2-44.7-24.4c4.1-16.2,0-24.4-8.1-16.2c-8.1,8.1-28.4,6.1-42.6-8.1c-24.4-20.3-22.3-30.4,18.3-62.9c26.4-20.3,32.5-30.4,16.2-22.3c-26.4,14.2-26.4,10.1-4.1-18.3c22.3-24.4,38.6-28.4,79.2-12.2c26.4,10.1,58.9,14.2,69,6.1c10.1-6.1,24.3,2,30.4,18.3c4.1,14.2,24.4,28.4,42.6,28.4c24.3,0,18.3-12.2-20.3-44.7c-40.6-30.4-48.7-48.7-32.5-65c14.2-14.2,6.1-18.3-36.5-10.2l-56.8,10.2l48.7-54.8c28.4-28.4,60.9-52.8,75.1-52.8c16.2,0,22.3-12.2,16.2-26.4c-6.1-16.2-30.4-26.4-54.8-26.4c-26.4,2-46.7-12.2-50.7-32.5c-4.1-26.4,2-32.5,26.4-24.3c20.3,8.1,44.7-2,60.9-24.4c20.3-28.4,28.4-30.4,30.4-10.2c0,16.2,4.1,24.4,10.1,18.3c6.1-6.1,6.1-26.4-2-44.6c-10.1-26.4-26.4-32.5-67-22.3c-42.6,10.1-48.7,8.1-28.4-12.2s18.3-32.5-8.1-62.9c-46.7-50.7-30.4-56.8,85.2-26.4c73.1,20.3,109.6,20.3,127.9,4.1c20.3-14.2,34.5-12.2,58.9,10.1c40.6,42.6,18.2,77.1-54.8,77.1c-32.5,0-60.9,14.2-69,30.4c-8.1,24.4,0,28.4,38.6,18.3c42.6-10.1,50.7-6.1,50.7,30.4c0,24.4,8.1,42.6,18.3,42.6s14.2,18.3,8.1,40.6c-6.1,22.3-22.3,40.6-36.5,40.6c-44.7,0-50.7,58.9-8.1,81.2c22.3,12.2,34.5,30.4,28.4,42.6c-8.1,10.2,2,18.3,22.3,18.3c26.4,0,28.4,6.1,10.1,28.4c-18.3,22.3-18.3,40.6-4,71c32.5,58.8,30.4,113.7-4.1,85.2c-20.3-16.3-28.4-14.2-28.4,8.1c0,16.2,8.1,30.4,18.3,30.4c30.4,0,16.2,97.4-16.2,109.6C5128.5,4536.3,5128.5,4536.3,5112.2,4522.1z"/><path d="M6762.3,4513.9c0-26.4,56.8-50.7,77.1-32.5c6.1,8.1,0,22.3-16.2,32.5C6782.7,4540.3,6762.3,4538.3,6762.3,4513.9z"/><path d="M4665.7,4221.7c-6.1-14.2,0-38.6,12.2-50.7c16.2-16.3,16.2-22.3-4-22.3c-14.2,0-20.3-8.1-14.2-18.3c8.1-10.2,0-24.4-12.2-28.4c-16.2-6.1-10.2-12.2,12.2-12.2c24.4-2,32.5-12.2,24.4-32.5c-8.1-22.3,4.1-30.4,44.6-32.5c46.7,0,48.7-4.1,14.2-16.2c-36.5-14.2-36.5-16.3-2-36.5c20.3-10.2,34.5-28.4,30.4-38.5c-2-10.2,10.2-20.3,28.4-24.4c22.3-4.1,38.6,12.2,46.7,44.7c6.1,28.4,20.3,48.7,28.4,42.6c8.1-6.1,22.3,4.1,28.4,22.3c20.3,52.8,14.2,73.1-16.2,62.9c-16.2-6.1-32.5-4.1-36.5,4.1c-4.1,8.1-44.6,48.7-89.3,89.3C4698.2,4229.8,4673.8,4244,4665.7,4221.7z"/><path d="M4428.2,3996.4c0-16.2,10.2-30.4,24.4-30.4c12.2,0,16.2-6.1,10.1-14.2c-8.1-6.1,10.1-24.3,38.6-40.6c67-34.5,67-34.5,54.8,14.2c-6.1,24.4-36.5,54.8-69,73.1C4434.3,4024.8,4428.2,4024.8,4428.2,3996.4z"/><path d="M4610.9,3927.4c0-46.7,52.8-71,69-32.5c6.1,16.2-6.1,38.6-28.4,50.7C4617,3963.9,4610.9,3959.8,4610.9,3927.4z"/><path d="M1923.6,3913.2c-6.1-18.3-12.2-48.7-12.2-69c0-18.3-14.2-46.7-30.4-60.9c-22.3-18.3-24.4-34.5-8.1-65c18.3-34.5,14.2-48.7-20.3-83.2l-42.6-42.6l-44.7,42.6c-34.5,34.5-38.6,50.7-20.3,73.1c20.3,22.3,10.1,32.5-54.8,50.7c-99.5,30.4-103.5,30.4-103.5-8.1c0-18.3-20.3-48.7-44.7-67l-44.6-36.5l40.6-69c22.3-38.6,60.9-71,85.2-75.1c48.7-8.1,62.9-44.7,14.2-44.7c-16.2,0-38.6-18.3-50.7-40.6c-22.3-42.6-81.2-56.8-81.2-20.3c0,12.2-22.3,20.3-48.7,20.3c-26.4,0-52.8,10.1-56.8,22.3c-6.1,16.2-40.6,14.2-123.8-10.1c-91.3-26.4-115.7-42.6-115.7-75.1c0-22.3-14.2-44.7-32.5-52.8c-16.2-6.1-26.4-22.3-20.3-38.5c6.1-14.2-4.1-36.5-20.3-50.7c-24.3-20.3-24.3-28.4,12.2-52.8c44.7-30.4,34.5-71-34.5-138c-32.5-32.5-32.5-36.5,2-54.8c26.4-14.2,32.5-34.5,22.3-71c-8.1-38.6-4.1-48.7,14.2-42.6c14.2,6.1,44.6-6.1,64.9-26.4c38.6-38.6,38.6-38.6-4.1-38.6c-24.4,0-58.9-22.3-79.2-52.8c-32.5-50.7-40.6-52.8-150.2-40.6c-117.7,12.2-142.1,0-152.2-67c-4.1-20.3,14.2-22.3,89.3-10.1c52.8,8.1,168.5,16.2,257.8,18.3c215.1,6.1,207,4.1,205,54.8c-2,42.6,14.2,48.7,170.5,79.2c168.5,30.4,255.7,30.4,203-2c-14.2-8.1-18.3-26.4-10.1-40.6s-8.1-10.1-36.5,10.1c-48.7,30.4-54.8,30.4-105.6-2c-28.4-18.3-48.7-44.7-44.7-56.8c4.1-12.2-6.1-34.5-24.4-48.7c-28.4-22.3-18.3-24.4,52.8-20.3c46.7,2,91.3-2,99.5-8.1c22.3-24.3,69,8.1,69,46.7c0,44.6,50.7,50.7,89.3,12.2c14.2-14.2,24.4-44.7,22.3-71s4.1-50.7,14.2-56.8c8.1-6.1,16.2-26.4,16.2-46.7c0-20.3,30.4-48.7,73.1-69c40.6-20.3,77.1-52.8,83.2-75.1c6.1-20.3,28.4-40.6,48.7-44.7c22.3-4,36.5-14.2,34.5-26.4c-4.1-10.2-12.2-18.3-20.3-16.2c-24.4,8.1-18.3-38.6,16.2-142.1c32.5-99.5,69-125.8,69-52.8c0,22.3,8.1,34.5,20.3,28.4c12.2-8.1,16.2-30.4,10.2-50.7c-18.3-56.8,28.4-71,50.7-16.2c20.3,44.7,20.3,42.6,10.1-8.1c-8.1-42.6-2-56.8,20.3-56.8s26.4-8.1,16.2-24.4c-8.1-14.2-12.2-46.7-10.2-71c4.1-22.3-4.1-48.7-14.2-56.8c-14.2-8.1-12.2-36.5,8.1-87.3c18.3-40.6,26.4-85.2,22.3-97.4c-6.1-14.2,0-30.4,14.2-34.5c18.3-6.1,18.3-22.3,2-71c-20.3-50.7-18.3-60.9,4.1-50.7c16.2,6.1,28.4-2,28.4-22.3c0-18.3-12.2-32.5-26.4-32.5c-20.3,0-28.4-28.4-30.4-91.3c0-93.4,10.2-109.6,50.7-69c14.2,14.2,20.3-12.2,16.2-93.4c-2-95.4,2-111.6,28.4-101.5c20.3,8.1,14.2-6.1-14.2-36.5c-48.7-52.8-52.8-107.6-8.1-152.2c12.2-14.2,24.4-40.6,24.4-54.8c0-16.2,26.4-44.7,60.9-62.9c42.6-26.4,52.8-42.6,38.6-60.9c-22.3-28.4,10.2-58.9,40.6-38.6c28.4,16.2,65-60.9,50.7-99.4c-8.1-18.3-2-46.7,10.1-60.9c34.5-40.6,0-158.3-46.7-166.4c-28.4-4.1-32.5,0-14.2,18.3c12.2,12.2,22.3,28.4,22.3,38.6c0,14.2-107.6,77.1-131.9,77.1c-8.1,0-12.2-48.7-8.1-105.5c2-58.8-2-125.8-12.2-148.2c-8.1-22.3-54.8-136-103.5-249.7c-58.9-140-89.3-241.5-89.3-298.4c0-54.8-16.2-117.7-42.6-160.3c-34.5-58.9-40.6-91.3-28.4-178.6c22.3-194.8,32.5-221.2,83.2-239.5c46.7-18.3,69-81.2,28.4-81.2c-32.5,0-24.4-65,30.4-203c28.4-71,50.7-154.2,50.7-184.7c0-46.7,18.3-64.9,101.5-111.6c131.9-71,186.7-160.4,241.5-393.8c26.4-105.6,50.7-209.1,54.8-227.3c6.1-18.3,50.7-85.2,99.5-150.2c69-89.3,85.2-123.8,71-150.2c-10.2-20.3-12.2-42.6-4.1-50.7c8.1-8.1-12.2-10.1-46.7-2l-60.9,14.2l71-73.1c38.6-38.6,85.2-69,103.5-67c18.3,4.1,58.9-24.3,89.3-60.9c46.7-56.8,52.8-79.2,42.6-146.1c-12.2-75.1-8.1-81.2,99.4-172.5c60.9-52.8,111.6-107.6,111.6-123.8c0-36.6,40.6-56.8,65-32.5c32.5,32.5-2,103.5-65,136c-46.7,24.3-58.9,48.7-81.2,162.4c-16.2,87.3-48.7,168.5-91.3,229.3c-34.5,52.8-71,121.8-79.2,152.2c-6.1,30.4-46.7,103.5-89.3,160.4c-60.9,87.3-77.1,127.9-85.2,233.4c-6.1,71-4.1,127.9,4.1,127.9c10.1,0,52.8-24.4,97.4-52.8c87.3-56.8,125.8-148.2,129.9-296.3c2-40.6,8.1-69,14.2-64.9c8.1,4,36.5-28.4,64.9-71c30.4-44.7,73.1-85.3,95.4-93.4c28.4-8.1,38.6-24.4,32.5-44.7c-8.1-20.3,16.2-56.8,69-105.5c58.9-54.8,77.1-83.2,69-115.7c-8.1-34.5,4.1-52.8,60.9-87.3c40.6-26.4,73.1-60.9,73.1-81.2c0-18.3,50.7-83.2,113.7-144.1c136-134,221.2-286.2,192.8-343c-12.2-20.3-14.2-42.6-6.1-50.7c6.1-8.1,0-24.3-16.2-34.5c-48.7-32.5,219.2-267.9,341-300.4c52.8-12.2,127.9-46.7,166.4-73.1c38.6-26.4,198.9-85.2,353.2-134l282.1-85.2l146.1,34.5l146.1,34.5l194.8-111.6c170.5-95.4,219.2-113.7,361.3-129.9c99.5-12.2,188.8-14.2,227.3-2.1c93.4,26.4,136,22.3,136-12.2c0-16.2-12.2-30.5-24.4-30.5c-14.2,0,32.5-34.5,105.5-77.1c73.1-42.6,134-87.3,134-101.5c2-14.2,4-42.6,6.1-67c2-34.5,10.2-40.6,60.9-28.4c73.1,16.2,225.3-54.8,225.3-105.5c0-18.3,6.1-26.4,12.2-20.3c8.1,6.1,30.4,4.1,50.7-6.1c24.4-14.2,40.6-14.2,48.7,0c16.3,26.4,125.9,26.4,142.1,0c6.1-10.1,24.4-14.2,40.6-8.1c16.3,8.1,34.5-2,42.6-18.3c6.1-18.3,26.4-26.4,50.7-20.3c54.8,14.2,67,42.6,36.5,81.2c-24.4,26.4-16.3,40.6,48.7,97.4c69,58.9,81.2,62.9,142.1,44.7c48.7-16.2,67-32.5,60.9-56.8c-6.1-18.3,6.1-38.6,22.3-44.7c18.3-8.1,32.5-4.1,32.5,6.1c0,12.2,12.2,20.3,28.4,20.3c46.7,0,54.8,58.9,12.2,101.5c-38.6,38.6-123.8,52.8-233.4,40.6c-20.3-2-79.1-30.4-127.9-65c-50.7-36.5-121.8-62.9-172.5-69c-83.2-8.1-93.4-2-194.9,101.5l-105.5,107.6l30.4,176.6c38.6,217.1,24.3,265.9-83.2,294.3c-109.6,30.5-158.3,28.4-326.8-18.3c-134-36.5-288.2-54.8-288.2-30.4c0,4.1,18.3,38.6,40.6,75.1c40.6,69,56.8,219.2,20.3,219.2c-10.2,0-14.2,14.2-8.1,30.4c10.2,22.3,20.3,26.4,38.6,10.1c20.3-16.2,28.4-8.1,38.6,32.5c8.1,28.4,8.1,69,2,91.3c-6.1,20.3,6.1,79.2,28.4,131.9c24.3,52.8,42.6,99.5,42.6,105.5c0,26.4-225.3-16.2-314.6-58.8c-93.4-46.7-101.5-54.8-123.8-154.3c-30.4-138-103.5-231.4-166.4-217.2c-26.4,4.1-107.6-12.2-182.7-40.6c-134-48.7-138-48.7-184.7-10.1c-26.4,20.3-69,38.6-93.4,38.6c-38.6,0-75.1,42.6-180.6,209l-134,211.1v194.8c0,113.7,8.1,196.9,20.3,196.9c42.6,0,65,83.2,44.7,170.5c-28.4,111.6-10.1,192.8,48.7,219.2c26.4,12.2,42.6,30.4,36.5,38.6c-6.1,10.2,10.2,18.3,38.6,18.3c50.7,0,136,67,136,107.6c0,16.3,50.7,26.4,156.3,30.4c85.2,4.1,168.4,16.3,182.7,28.4c22.3,16.2,42.6,12.2,89.3-22.3c48.7-36.5,67-40.6,91.3-22.3c16.3,14.2,28.4,18.3,30.4,8.1c0-10.1,8.1,0,16.3,20.3c14.2,36.5,16.2,36.5,56.8-6.1c26.4-28.4,46.7-38.6,56.8-24.4c6.1,12.2-2,28.4-20.3,34.5c-18.3,8.1-28.4,24.3-22.3,40.6c6.1,14.2-12.2,32.5-44.6,44.6c-48.7,16.3-42.6,20.3,73,42.6c69,12.2,125.9,30.4,125.9,38.6c0,8.1,60.9,16.3,136,20.3c101.5,4.1,142.1-4,170.5-28.4c34.5-30.4,40.6-30.4,93.4,8.1c62.9,44.7,85.3,38.6,194.8-48.7c38.6-32.5,54.8-62.9,54.8-109.6c0-40.6,8.1-58.8,22.3-48.7c12.2,6.1,20.3-2,18.3-24.4c-8.1-71,0-89.3,38.6-89.3c24.3,0,46.7-22.3,60.9-62.9c12.2-34.5,40.6-67,62.9-73.1c22.3-6.1,40.6-24.3,40.6-40.6c0-46.7,48.7-18.3,62.9,36.6c34.5,121.8,16.3,190.8-113.7,442.5l-127.9,253.7l40.6,81.2c79.1,152.2,186.7,306.5,298.4,424.2c60.9,62.9,101.5,115.7,87.3,115.7c-36.5,0-20.3,48.7,22.3,65c50.7,22.3,46.7,85.2-6.1,71c-48.7-12.2-54.8,16.2-10.2,42.6c40.6,22.3,20.3,79.2-32.5,95.4c-22.3,8.1-36.5,24.4-32.5,36.5c14.2,40.6-24.4,95.4-67,95.4c-20.3,0-44.6,10.1-52.8,22.3c-10.2,18.3,2,20.3,40.6,10.2c58.8-14.2,62.9-4.1,22.3,69c-18.3,36.5-20.3,58.9-6.1,75.1c34.5,42.6,52.8,30.4,40.6-26.4c-6.1-38.6,4.1-65,42.6-101.5c50.7-46.7,52.8-46.7,64.9-8.1c6.1,20.3-2,67-18.3,99.5c-40.6,77.1-40.6,95.4-2,62.9c24.4-20.3,32.5-14.2,50.7,32.5c16.2,40.6,16.2,71,2,103.5c-32.5,69,8.1,138,111.6,192.8c48.7,26.4,89.3,58.9,89.3,73.1c0,14.2,8.1,22.3,16.2,16.3c8.1-4.1,38.6,10.1,64.9,32.5c28.4,22.3,38.6,34.5,26.4,26.4c-14.2-6.1-44.6-2-67,10.1c-32.5,16.2-40.6,42.6-40.6,117.7c0,121.8,18.3,186.7,50.7,186.7c14.2,0,30.4,20.3,36.5,46.7c8.1,24.4,32.5,54.8,58.9,65c34.5,14.2,44.6,36.5,42.6,77.1c-2,38.6,6.1,54.8,30.4,54.8c18.3,0,58.9,38.6,89.3,87.3c34.5,52.8,56.8,71,56.8,50.8c0-42.6,8.1-44.6,60.9-16.2c32.5,16.2,36.5,16.2,28.4-10.2c-8.1-16.2-28.4-30.4-46.7-30.4c-52.8,0-107.6-127.9-83.2-192.8c36.5-93.4,101.5-52.8,101.5,62.9c0,28.4,14.2,54.8,30.4,60.9c16.2,8.1,30.4,22.3,30.4,36.5c0,14.2,36.5,60.9,81.2,103.5c77.1,75.1,79.2,81.2,38.6,95.4c-28.4,12.2-58.9,4.1-99.5-24.4c-40.6-30.4-73-36.5-121.8-28.4c-71,14.2-162.4,93.3-162.4,140c0,20.3-18.3,26.4-62.9,20.3l-62.9-8.1l52.8,48.7c58.8,54.8,67,95.4,24.3,129.9c-36.5,30.4-123.8-2-178.6-65c-20.3-24.4-73.1-115.7-115.7-200.9l-75.1-156.3l4,89.3c2.1,60.9,24.4,123.8,67,192.8c34.5,56.8,62.9,117.7,62.9,138c2,97.4,26.4,119.8,243.6,227.3c221.2,109.6,243.6,129.9,243.6,235.5c0,22.3,22.3,62.9,48.7,87.3c54.8,52.8,81.2,162.4,40.6,178.6c-14.2,4.1-40.6,40.6-58.9,79.2c-34.5,73.1-91.3,93.4-91.3,34.5c-2-34.5-2-34.5-28.4,0c-36.5,46.7-62.9,44.7-105.5-10.1c-30.4-42.6-32.5-42.6-22.3-6.1c4.1,22.3,16.2,54.8,22.3,73.1c12.2,28.4,2,32.5-69,26.4c-46.7-4.1-97.4-16.2-111.6-28.4c-18.3-16.2-28.4-10.1-36.5,22.3c-8.1,32.5-22.3,40.6-52.8,32.5c-24.3-6.1-42.6-2-42.6,8.1c0,10.2-14.2,18.3-30.4,18.3c-18.3,0-30.4,18.3-30.4,50.7c0,40.6-10.2,50.7-50.8,50.7c-32.5,0-50.7,12.2-50.7,30.4c0,28.4-24.4,38.6-65,32.5c-10.2,0-16.2,8.1-16.2,20.3c0,10.1-10.2,14.2-24.4,6.1c-14.2-10.1-18.2-4.1-10.1,18.3c8.1,22.3-12.2,44.7-73.1,75.1c-46.7,24.4-97.4,58.9-109.6,77.1c-22.3,28.4-26.4,26.4-26.4-20.3c0-28.4,12.2-56.8,28.4-62.9c32.5-12.2,24.3-119.8-10.2-131.9c-10.2-4.1-18.3-30.4-18.3-58.9c0-36.5-8.1-48.7-30.4-38.6c-16.3,6.1-30.4,0-30.4-14.2c-2-14.2-12.2-4.1-26.4,20.3c-18.3,32.5-32.5,40.6-54.8,26.4c-16.2-10.1-44.6-18.3-60.9-18.3c-20.3,0-22.3,4-4.1,12.2c12.2,4.1,24.4,22.3,24.4,38.6c0,18.3-8.1,26.4-18.3,18.3c-10.2-6.1-24.3,8.1-32.5,30.4c-6.1,22.3-22.3,40.6-32.5,40.6c-12.2,0-16.3,8.1-10.1,18.3c28.4,44.7-14.2,83.2-91.3,83.2c-42.6,0-79.2,10.1-79.2,20.3c0,12.2-14.2,20.3-30.4,20.3c-18.3,0-54.8,14.2-83.2,32.5c-38.6,26.4-56.8,28.4-75.1,10.1c-12.2-12.2-67-22.3-119.7-22.3c-105.6,0-121.8-22.3-67-93.4c16.2-20.3,30.4-58.9,30.4-85.2s8.1-42.6,18.3-36.5c32.5,20.3,64.9-91.3,50.7-188.8c-12.2-93.4-10.2-97.4,50.7-123.8c34.5-14.2,83.2-58.8,107.6-99.4c22.3-40.6,62.9-89.3,85.3-107.6c34.5-28.4,36.5-36.5,10.1-36.5c-20.3,0-38.6-24.4-46.7-65c-6.1-36.5-40.6-95.4-75.1-129.9c-60.9-62.9-60.9-65-22.3-91.3c60.9-44.7,144.1-225.3,140.1-306.5c-2.1-40.6-10.2-69-20.3-62.9c-8.1,4.1-20.3-6.1-26.4-22.3c-16.3-40.6-89.3-42.6-89.3-2c0,16.2-40.6,56.8-89.3,91.3c-75.1,50.7-95.4,79.2-121.8,170.5c-18.3,60.9-32.5,119.7-32.5,129.9c0,38.6-34.5,44.7-131.9,26.4c-89.3-16.3-107.6-12.2-326.8,91.3c-223.3,107.6-233.4,109.6-290.3,79.1c-71-36.5-91.3-38.5-73.1-10.1c8.1,12.2-2,62.9-22.3,113.7c-30.5,79.1-42.6,91.3-83.2,83.2c-32.5-6.1-54.8,4.1-67,28.4c-32.5,60.9-22.3,196.9,20.3,284.2c24.4,44.6,36.5,87.3,32.5,97.4c-6.1,10.1,6.1,32.5,28.4,52.8c22.3,20.3,40.6,48.7,40.6,60.9c0,14.2,20.3,30.4,44.7,36.5c44.7,12.2,44.7,12.2,6.1,54.8c-30.4,32.5-30.4,38.6-6.1,30.4c22.3-8.1,34.5,2,44.7,38.6c10.1,38.6,26.4,52.8,62.9,52.8c36.5,0,56.8,16.2,71,52.8c30.4,79.1,28.4,83.2-81.2,109.6c-54.8,14.2-101.5,32.5-101.5,42.6c0,26.4,24.4,22.3,107.6-12.2c69-28.4,75.1-28.4,95.4,12.2c14.2,22.3,18.3,54.8,12.2,71c-8.1,20.3,6.1,28.4,52.8,28.4c60.9,0,62.9,2,24.4,28.4c-48.7,36.5-20.3,69,32.5,36.5c34.5-20.3,44.6-16.2,73.1,38.6c30.5,60.9,30.5,64.9-22.3,119.7c-30.4,32.5-44.7,60.9-34.5,69c32.5,20.3,2,93.4-38.6,93.4c-22.3,0-38.6,10.1-38.6,20.3c0,24.4-40.6,26.4-79.2,2c-22.3-14.2-24.3-26.4-8.1-46.7c14.2-16.2,18.3-71,10.2-148.2c-16.2-146.1-54.8-160.3-103.5-40.6c-56.8,142.1-103.5,178.6-103.5,81.2c0-28.4-8.1-50.7-16.2-50.7c-22.3,0-87.3,113.7-71,129.9c6.1,6.1-8.1,12.2-34.5,12.2c-38.6,0-44.7,8.1-34.5,56.8c8.1,42.6-4.1,73.1-52.8,134l-65,77.1l-36.5-73.1c-18.3-40.6-26.4-73.1-16.2-73.1c8.1,0,12.2-22.3,8.1-46.7c-8.1-38.6,2-52.8,52.8-75.1c34.5-14.2,56.8-32.5,50.7-44.7c-6.1-10.1,0-32.5,16.2-50.7c22.3-26.4,18.3-36.5-20.3-62.9c-28.4-18.3-44.7-50.7-44.7-87.3c0-44.7-8.1-54.8-32.5-44.7c-20.3,8.1-28.4,26.4-20.3,58.9c8.1,32.5,2,52.8-22.3,67c-34.5,20.3-34.5,20.3-2,22.3c62.9,0,64.9,46.7,4.1,95.4c-73.1,56.8-81.2,58.9-97.4,2c-8.1-30.4,0-54.8,24.4-73.1c28.4-20.3,28.4-28.4,6.1-42.6c-14.2-10.1-20.3-28.4-14.2-40.6c8.1-12.2,24.4-18.3,34.5-12.2c10.1,8.1,18.3-2,18.3-22.3c0-28.4-6.1-28.4-30.4-8.1c-24.4,20.3-38.6,20.3-54.8,4.1c-40.6-40.6-164.4-28.4-205,16.2c-18.3,22.3-52.8,40.6-73.1,40.6c-22.3,0-46.7,18.3-52.8,40.6c-14.2,46.7-42.6,50.7-111.6,10.1c-46.7-26.4-30.4-42.6,30.4-32.5c12.2,2,4.1-10.1-14.2-30.4c-26.4-28.4-28.4-42.6-10.2-85.2c18.3-40.6,18.3-52.8-2-60.9c-14.2-4.1-20.3-18.3-12.2-30.4c6.1-14.2-2-6.1-20.3,14.2c-16.2,20.3-26.4,46.7-20.3,54.8c6.1,10.2-6.1,40.6-24.4,69c-26.4,38.6-44.6,48.7-77.1,38.6c-54.8-18.3-113.7-14.2-186.7,12.2l-58.9,22.3l44.7,34.5c52.8,38.6,40.6,73.1-34.5,95.4c-26.4,8.1-89.3,48.7-138,89.3c-65,54.8-101.5,71-146.1,67c-46.7-6.1-60.9,2-60.9,26.4c0,28.4-6.1,30.4-30.4,10.1c-26.4-22.3-32.5-16.2-42.6,34.5c-12.2,58.9-14.2,60.9-85.2,44.7c-103.5-24.4-113.7-22.3-85.2,12.2c20.3,24.4,10.1,26.4-83.2,16.2c-93.4-10.2-105.5-8.1-93.4,20.3c18.3,46.7-18.3,42.6-67-6.1c-40.6-40.6-40.6-38.5-123.8,111.6c-50.7,93.4-125.8,190.8-194.8,253.7c-62.9,58.9-115.7,119.8-117.7,140.1c0,18.3-8.1,44.7-18.3,58.8c-8.1,12.2-8.1,34.5-2,44.7c6.1,12.2,2,20.3-10.2,20.3c-12.2,0-16.2,10.2-10.1,20.3c6.1,12.2-6.1,20.3-28.4,20.3s-46.7,10.2-52.8,20.3c-8.1,12.2-30.4,16.2-52.8,10.2c-22.3-8.1-38.6-4.1-38.6,10.2c0,18.3-36.5,20.3-129.9,10.1c-85.2-8.1-134-6.1-144.1,8.1C2002.8,3955.8,1937.8,3949.7,1923.6,3913.2z M5037.1,2179.8c0-10.2-26.4-8.1-60.9,2c-32.5,12.2-60.9,30.4-60.9,38.5c0,10.2,28.4,8.1,60.9-2C5010.8,2206.2,5037.1,2188,5037.1,2179.8z"/><path d="M4184.7,3872.6c0-30.4,52.8-38.6,69-10.1c6.1,10.1-6.1,22.3-28.4,28.4C4198.9,3896.9,4184.7,3890.8,4184.7,3872.6z"/><path d="M3937.1,3817.8c-42.6-32.5-50.7-52.8-36.5-75.1c14.2-24.4,26.4-22.3,69,20.3c32.5,28.4,52.8,36.5,52.8,20.3c0-18.3,12.2-16.2,40.6,10.1C4148.2,3870.5,4028.4,3894.9,3937.1,3817.8z"/><path d="M1262,3722.4c0-32.5,10.1-60.9,20.3-60.9c12.2,0,20.3,28.4,20.3,60.9c0,34.5-8.1,60.9-20.3,60.9C1272.1,3783.3,1262,3756.9,1262,3722.4z"/><path d="M4671.8,3722.4c24.4-46.7,71-44.7,71,2c0,16.2-20.3,30.4-46.7,34.5C4653.5,3765,4651.5,3760.9,4671.8,3722.4z"/><path d="M4071,3724.4c6.1-10.1-2-24.4-20.3-30.4c-16.2-6.1-24.3-20.3-18.3-32.5c6.1-10.1-2-20.3-18.3-20.3c-32.5,0-42.6-24.4-18.3-46.7c6.1-8.1,26.4-4.1,40.6,10.2c22.3,18.3,32.5,18.3,46.7-2c8.1-16.3,26.4-20.3,40.6-12.2c18.3,10.2,22.3,8.1,12.2-6.1c-8.1-14.2-30.4-24.4-48.7-24.4c-24.4,0-26.4-6.1-8.1-24.4c18.3-18.3,42.6-18.3,101.5,0c44.7,14.2,99.5,24.4,121.8,24.4c24.4,0,46.7,18.3,54.8,42.6c14.2,44.6-10.1,87.3-24.4,42.6c-14.2-40.6-46.7-6.1-46.7,48.7c0,32.5-10.1,48.7-24.4,42.6c-16.2-4.1-24.3-34.5-20.3-71c4.1-38.6-2-64.9-16.2-64.9c-26.4,0-121.8,99.5-121.8,123.8c0,10.2-10.1,18.3-22.3,18.3C4071,3742.7,4064.9,3734.6,4071,3724.4z"/><path d="M4793.6,3694c0-56.9,44.7-152.2,77.1-162.4c60.9-16.3,255.7,0,261.8,22.3c4.1,12.2,24.4,18.3,44.7,12.2c18.3-4,46.7,6.1,60.9,22.3c18.3,22.3,20.3,32.5,4,32.5c-12.2,0-22.3,14.2-22.3,30.4c0,38.6-67,38.6-142.1,0c-32.5-16.2-83.2-28.4-115.7-26.4c-62.9,6.1-131.9,54.8-115.7,81.2c6.1,8.1-4.1,16.2-20.3,16.2C4807.8,3722.4,4793.6,3710.2,4793.6,3694z"/><path d="M4515.5,3669.6c-6.1-18.3-2-38.6,12.2-46.7c14.2-8.1,22.3-28.4,18.3-42.6c-8.1-36.5,65-52.8,85.2-20.3c8.1,14.2,6.1,50.7-6.1,83.2C4600.8,3708.2,4535.8,3722.4,4515.5,3669.6z"/><path d="M4702.3,3580.3c-16.2-26.4,6.1-60.9,40.6-60.9c16.2,0,22.3,14.2,16.2,40.6C4746.9,3604.7,4722.5,3612.8,4702.3,3580.3z"/><path d="M3677.3,3541.7c0-20.3-38.6-73.1-85.2-115.7c-48.7-42.6-75.1-79.2-60.9-85.3c14.2-4.1,24.4-34.5,24.4-69c0-56.8,4.1-58.8,67-46.7c34.5,8.1,73.1,28.4,81.2,42.6c10.2,16.2,71,56.8,138,89.3c64.9,34.5,119.7,69,119.7,77.1c0,28.4-46.7,65-85.2,65c-18.3,0-44.6,18.3-56.8,40.6C3788.9,3594.5,3677.3,3596.5,3677.3,3541.7z"/><path d="M6441.7,3523.5c-36.5-24.4,12.2-65,67-56.8c40.6,6.1,69,52.8,34.5,52.8c-12.2,0-32.5,4.1-48.7,10.2C6480.2,3535.6,6455.9,3531.6,6441.7,3523.5z"/><path d="M5280.7,3462.6c0-32.5,79.2-89.3,101.5-75.1c14.2,8.1,32.5,2,42.6-12.2c26.4-44.7,22.3-62.9-16.2-54.8c-20.3,2-48.7-2-60.9-10.1c-18.3-12.2-26.4-4.1-26.4,20.3c-2,20.3-18.3,56.8-40.6,83.2c-32.5,40.6-44.7,42.6-81.2,20.3c-22.3-14.2-36.5-36.5-32.5-50.7c6.1-14.2,2-30.4-10.1-38.6c-12.2-8.1-8.1-26.4,14.2-50.7c32.5-36.5,32.5-38.6-4-40.6c-34.5,0-34.5-2,8.1-32.5c24.4-16.2,44.6-44.6,44.6-58.9c0-16.2-20.3-28.4-44.6-26.4c-26.4,0-36.5,6.1-22.3,10.1c16.2,8.1,10.1,32.5-18.3,81.2c-30.4,50.7-38.6,91.3-30.4,140c10.2,58.9,6.1,71-24.4,71c-56.8,0-103.5-87.3-103.5-190.8c0-85.2,2-89.3,77.1-109.6c48.7-12.2,58.9-20.3,30.4-22.3c-24.4-2-48.7-10.1-54.8-20.3c-20.3-30.4,46.7-69,97.4-54.8c30.4,8.1,52.8,2,58.9-16.2c8.1-20.3,32.5-22.3,109.6-8.1c213.1,38.6,211.1,38.6,186.7,69c-40.6,48.7,0,58.8,48.7,12.2c26.4-24.4,67-44.7,91.3-44.7c26.4,0,50.7-14.2,56.8-30.4s40.6-34.5,75.1-40.6c81.2-16.2,196.9-117.7,196.9-174.5c0-22.3-10.2-60.9-22.3-83.2c-20.3-36.5-16.3-48.7,22.3-77.1l44.6-32.5l-52.8-34.5c-28.4-18.3-75.1-34.5-103.5-34.5c-46.7,0-50.7-6.1-38.6-54.8c8.1-32.5,14.2-58.8,16.3-60.9c2-2,40.6,8.1,89.3,20.3c56.8,14.2,83.2,32.5,75.1,48.7c-6.1,20.3,0,22.3,28.4,8.1c20.3-12.2,42.6-16.3,46.7-10.2c6.1,4,22.3-4.1,36.5-22.3c14.2-16.2,46.7-30.4,73.1-30.4c34.5,0,44.7-8.1,36.5-30.4c-10.1-26.4,16.3-30.4,166.4-30.4l180.6,2l-111.6,56.8c-97.4,50.7-103.5,58.9-65,71c24.4,8.1,62.9,10.1,85.3,4.1c144.1-42.6,136-42.6,97.4,2c-42.6,46.7-48.7,75.1-10.1,54.8c12.2-8.1-6.1,16.2-44.7,50.7c-36.5,36.5-79.1,60.9-95.4,54.8c-14.2-6.1-46.7,6.1-73.1,26.4c-26.4,20.3-56.8,32.5-69,28.4c-12.2-4-34.5,6.1-48.7,24.4c-20.3,26.4-18.3,30.4,12.2,30.4c36.6,2,36.6,2,0,30.4c-54.8,40.6-24.3,62.9,48.7,36.5c42.6-16.2,60.9-16.2,69,2c4,12.2,10.1,8.1,10.1-12.2c2-18.3,30.4-42.6,64.9-54.8c85.2-30.4,91.3-28.4,54.8,14.2c-20.3,22.3-28.4,65-26.4,121.8c4.1,46.7-2,85.2-12.2,85.2s-18.3-8.1-18.3-18.3c0-24.4-101.5-12.2-119.7,12.2c-6.1,12.2-42.6,20.3-81.2,22.3c-36.5,0-79.1,12.2-89.3,22.3c-12.2,12.2-44.6,22.3-71,22.3s-40.6,8.1-34.5,20.3c6.1,10.1-6.1,30.4-28.4,44.7c-30.4,18.3-34.5,30.4-18.3,52.8c18.3,20.3,16.3,32.5-6.1,44.7c-16.3,12.2-30.4,12.2-34.5,0c-4.1-12.2-16.3-20.3-28.4-20.3c-12.2,0-16.2,14.2-8.1,30.4c6.1,18.3,0,30.4-20.3,30.4c-16.3,0-34.5-14.2-40.6-30.4c-18.3-48.7-67-36.5-81.2,20.3c-14.2,58.9-58.9,67-87.3,16.2c-20.3-34.5-20.3-32.5-22.3,4.1c0,30.4-4.1,34.5-18.3,12.2c-10.1-14.2-28.4-20.3-40.6-14.2c-12.2,8.1-16.2,24.4-10.1,36.5c10.1,14.2,2,18.3-18.3,10.2c-24.4-10.2-34.5-2-34.5,26.4c0,28.4-14.2,40.6-42.6,40.6c-22.3,0-36.6,8.1-28.4,18.3c6.1,12.2-6.1,30.4-28.4,40.6C5376.1,3482.9,5280.7,3484.9,5280.7,3462.6z"/><path d="M4740.8,3342.8c6.1-42.6,12.2-93.4,12.2-115.7c0-30.4,6.1-32.5,28.4-12.2c16.2,12.2,24.4,36.5,18.3,52.8c-6.1,18.3,4.1,28.4,30.4,28.4c40.6,0,64.9,36.5,64.9,93.4c0,20.3-24.4,28.4-83.2,28.4h-85.2L4740.8,3342.8z"/><path d="M4298.3,3383.4c-14.2-14.2,26.4-67,50.7-67c10.1,0,18.3,12.2,18.3,28.4C4367.4,3375.3,4318.6,3401.7,4298.3,3383.4z"/><path d="M4529.7,3369.2c0-16.3,8.1-32.5,20.3-36.6c12.2-4,12.2-18.3,0-34.5c-14.2-24.4-22.3-24.4-46.7-4.1c-62.9,50.7-56.8-20.3,6.1-99.5c73.1-93.4,93.4-97.4,144.1-36.5c50.7,56.8,48.7,111.6-2,127.9c-32.5,10.2-36.5,20.3-20.3,50.7c30.4,54.8,26.4,60.9-40.6,60.9C4552.1,3397.6,4529.7,3387.5,4529.7,3369.2z"/><path d="M3884.3,3348.9c-111.6-38.6-138-152.2-36.5-156.3c30.4-2,24.4-6.1-22.3-20.3c-91.3-26.4-69-79.2,34.5-79.2c44.7,0,95.4-16.2,121.8-36.5c44.7-36.5,42.6-36.5-87.3-28.4c-129.9,8.1-134,8.1-121.8-36.5c6.1-26.4,38.6-60.9,69-79.1c32.5-18.3,58.9-48.7,58.9-67c0-54.8,186.7-50.7,280.1,8.1c62.9,38.6,71,40.6,89.3,10.2c20.3-38.6,178.6-50.7,178.6-14.2c0,10.2-14.2,14.2-30.4,8.1c-20.3-8.1-30.4,0-30.4,22.3c0,18.3,8.1,28.4,20.3,20.3c18.3-12.2,101.5,30.4,101.5,52.8c0,8.1-36.5,36.5-79.2,64.9c-77.1,50.7-81.2,60.9-87.3,168.5c-10.2,178.6-113.7,213.1-119.8,38.6c0-32.5-6.1-46.7-12.2-30.4c-6.1,16.2-20.3,52.8-30.4,81.2c-16.2,44.6-20.3,46.7-38.6,16.2c-12.2-20.3-32.5-36.5-46.7-36.5c-16.2,0-26.4,16.2-24.4,36.5c2,24.4-10.2,32.5-42.6,30.4c-30.4-4-46.7,6.1-46.7,24.4C3981.7,3381.4,3973.6,3383.4,3884.3,3348.9z"/><path d="M6687.2,3346.9c-14.2-16.2-18.3-32.5-10.1-38.6c8.1-6.1,26.4,8.1,40.6,30.4C6746.1,3383.4,6723.8,3389.5,6687.2,3346.9z"/><path d="M6007.3,3160.2c14.2-6.1,32.5-4,38.6,2c8.1,6.1-4.1,12.2-26.4,10.1C5997.2,3172.3,5991.1,3166.3,6007.3,3160.2z"/><path d="M5711,2827.3c18.2-52.8,26.4-58.9,50.7-34.5c34.5,36.5,14.2,97.4-36.5,97.4C5692.7,2890.2,5690.7,2882.1,5711,2827.3z"/><path d="M653.1,2711.6c0-10.1,24.4-28.4,52.8-42.6c46.7-20.3,52.8-20.3,40.6,8.1c-6.1,18.3-12.2,38.6-12.2,42.6c0,4-18.3,8.1-40.6,8.1C671.3,2727.8,653.1,2719.7,653.1,2711.6z"/><path d="M1302.6,2565.5c0-10.1,10.2-20.3,22.3-20.3c10.2,0,14.2,10.2,8.1,20.3c-6.1,12.2-16.2,20.3-22.3,20.3C1306.6,2585.8,1302.6,2577.7,1302.6,2565.5z"/><path d="M1140.2,2528.9c0-36.5,12.2-44.7,58.9-44.7c62.9,0,95.4,26.4,73.1,60.9c-8.1,14.2-26.4,14.2-48.7,0c-24.4-12.2-44.7-10.1-58.9,4.1C1146.3,2567.5,1140.2,2563.4,1140.2,2528.9z"/><path d="M5349.7,2352.3c2-103.5,8.1-131.9,32.5-131.9c18.3,0,42.6-10.1,54.8-22.3c16.2-16.2,32.5-6.1,54.8,40.6c34.5,65,60.9,79.1,83.2,42.6c16.2-28.4,105.5-26.4,123.8,2c16.3,28.4-28.4,58.9-64.9,44.6c-14.2-4-34.5,8.1-46.7,28.4c-10.1,22.3-58.8,52.8-107.6,67c-48.7,14.2-97.4,34.5-109.6,44.7C5353.8,2480.2,5347.7,2447.7,5349.7,2352.3z"/><path d="M5838.8,2281.3c6.1-10.2,16.2-20.3,22.3-20.3c4.1,0,8.1,10.2,8.1,20.3c0,12.2-10.2,20.3-22.3,20.3C5836.8,2301.6,5832.8,2293.5,5838.8,2281.3z"/><path d="M5564.9,2118.9c-14.2-26.4-14.2-40.6-2-40.6c12.2,0,30.4,18.3,42.6,40.6c14.2,26.4,14.2,40.6,2,40.6C5595.3,2159.5,5577,2141.3,5564.9,2118.9z"/><path d="M2128.6,1964.7c-26.4-26.4-14.2-46.7,26.4-42.6c22.3,2,38.6,12.2,34.5,22.3C2181.4,1970.8,2146.9,1980.9,2128.6,1964.7z"/><path d="M2197.7,1903.8c-12.2-28.4-22.3-60.9-22.3-73.1c0-34.5,54.8,20.3,67,65C2258.5,1956.6,2226.1,1962.7,2197.7,1903.8z"/><path d="M2187.5,1743.5c-6.1-16.2-2-30.4,8.1-30.4c26.4,0,44.7,36.5,22.3,48.7C2207.8,1767.8,2195.6,1759.7,2187.5,1743.5z"/><path d="M2161.1,1631.8c6.1-22.3,2-46.7-8.1-52.8c-10.1-6.1-8.1-28.4,4.1-54.8c24.4-42.6,24.4-42.6,38.6-2c20.3,50.7,2,150.2-24.4,150.2C2159.1,1672.4,2155,1654.2,2161.1,1631.8z"/><path d="M2246.4,1552.7c-6.1-10.2-2-24.4,10.1-32.5c10.2-6.1,20.3,2,20.3,18.3C2276.8,1575,2264.6,1581.1,2246.4,1552.7z"/><path d="M7890.8,1426.8c-8.1-50.7-2-105.5,16.3-150.2c18.3-40.6,26.4-85.3,20.3-101.5c-8.1-18.3,0-30.4,14.2-30.4c18.3,0,20.3-6.1,6.1-16.2c-12.2-8.1-26.4-34.5-32.5-58.9c-8.1-32.5-4.1-40.6,20.3-32.5c24.4,10.1,28.4,2,16.2-40.6c-14.2-56.8,20.3-97.4,40.6-48.7c6.1,18.3,34.5,36.5,64.9,44.7c30.4,6.1,71,32.5,89.3,56.8c24.4,28.4,36.5,34.5,36.5,16.3c0-22.3,10.2-18.3,42.6,10.1c40.6,36.5,40.6,36.5,26.4-22.3c-8.1-42.6-6.1-54.8,8.1-40.6c12.2,12.2,22.3,56.8,24.4,101.5c8.1,111.6,4.1,136-20.3,121.8c-12.2-8.1-26.4,14.2-32.5,48.7c-12.2,54.8-16.3,58.8-56.9,36.5c-22.3-14.2-48.7-32.5-56.8-44.7c-10.2-12.2-16.2-10.2-16.2,8.1c0,22.3-6.1,22.3-30.4,2c-24.4-20.3-30.4-18.3-30.4,8.1c0,20.3-10.1,28.4-22.3,20.3c-28.4-16.2-58.9,28.4-58.9,89.3c0,26.4-12.1,60.9-28.4,75.1C7907.1,1504,7901,1495.8,7890.8,1426.8z"/><path d="M2065.7,1361.9c-18.3-69-14.2-115.7,10.2-115.7c10.1,0,14.2,10.2,8.1,20.3c-8.1,12.2,8.1,38.6,34.5,60.9c38.6,32.5,40.6,38.6,8.1,26.4c-26.4-8.1-34.5-6.1-24.4,10.2c6.1,12.2,4.1,26.4-6.1,32.5C2086,1402.5,2073.8,1388.3,2065.7,1361.9z"/><path d="M6052,1376.1c0-16.2,10.2-24.4,20.3-18.3c12.2,8.1,16.2,22.3,10.2,32.5C6064.1,1418.7,6052,1412.6,6052,1376.1z"/><path d="M8343.5,1179.2c-30.4-22.3-30.4-30.4-6.1-65c16.3-20.3,28.4-30.4,28.4-18.3c0,10.1,8.1,4,20.3-12.2c28.4-44.7,42.6-14.2,28.4,56.8C8400.3,1211.7,8392.2,1215.7,8343.5,1179.2z"/><path d="M7523.5,1002.6c-30.4-12.2-16.2-18.3,56.8-18.3c60.9-2,93.4,6.1,85.3,18.3C7651.3,1027,7580.3,1027,7523.5,1002.6z"/><path d="M6021.5,921.4c6.1-10.1,26.4-20.3,42.6-20.3c16.3,0,24.4,10.1,18.3,20.3c-6.1,12.2-26.4,20.3-42.6,20.3C6023.6,941.7,6015.4,933.6,6021.5,921.4z"/><path d="M2240.3,832.1c20.3-14.2,30.4-32.5,24.3-38.6c-8.1-6.1,2-26.4,18.3-44.7c18.3-18.3,38.6-62.9,46.7-101.5c8.1-50.7,24.4-71,50.7-71c24.4,0,32.5-10.1,26.4-28.4c-10.1-26.4,71-101.5,89.3-83.2c6.1,6.1-6.1,67-26.4,134c-32.5,105.5-52.8,136-129.9,192.8c-52.8,36.5-101.5,67-113.7,67C2215.9,858.5,2222,846.3,2240.3,832.1z"/><path d="M7907.1,710.4c-14.2-56.9,0-113.7,28.4-113.7c20.3,0,20.3,134,0,154.3C7927.4,757,7915.2,740.8,7907.1,710.4z"/><path d="M7980.2,686c0-16.2,10.1-24.4,20.3-18.3c12.2,8.1,16.2,22.3,10.1,32.5C7992.3,728.6,7980.2,722.5,7980.2,686z"/><path d="M7773.1,625.1c-67-34.5-71-48.7-16.2-48.7c20.3,0,48.7,18.3,60.9,40.6C7844.2,665.7,7844.2,663.7,7773.1,625.1z"/><path d="M7148-2650.8c0-22.3,14.2-40.6,30.4-40.6s30.4,12.2,30.4,28.4c0,16.2-14.2,32.5-30.4,40.6C7158.1-2614.2,7148-2624.4,7148-2650.8z"/><path d="M8603.3-2957.2c-42.6-22.3-71-48.7-65-58.9c14.2-22.3,119.8,24.4,142.1,62.9C8704.7-2916.7,8682.4-2916.7,8603.3-2957.2z"/><path d="M9167.5-2936.9c-22.3-34.5,2-42.6,30.4-8.1c16.2,18.3,16.2,30.4,4.1,30.4C9189.8-2914.6,9173.6-2924.8,9167.5-2936.9z"/><path d="M6705.5-2999.9c-131.9-48.7-174.6-75.1-188.8-113.7c-30.4-79.2-4.1-79.2,79.1,2c58.9,56.8,93.4,75.1,146.1,75.1c56.8,0,65-6.1,40.6-22.3c-22.3-16.3,26.4-18.3,174.5-10.1c186.7,10.1,209.1,8.1,241.5-28.4c22.3-24.4,62.9-40.6,105.5-40.6c69,0,87.3-32.5,42.6-77.1c-34.5-34.5,290.2,75.1,328.8,109.6c24.4,24.4,16.2,28.4-56.8,28.4c-46.7,0-85.3,10.1-85.3,20.3c0,12.2-36.5,20.3-85.2,18.3c-48.7-2.1-166.4,20.3-261.8,48.7C6965.3-2920.7,6914.6-2922.8,6705.5-2999.9z"/><path d="M8010.6-3018.1c-142.1-42.6-211.1-79.2-148.2-79.2c18.3,0,36.5-16.2,44.7-34.5c6.1-20.3,16.2-46.7,22.3-58.8c6.1-12.2-32.5-32.5-91.3-46.7c-54.8-14.2-101.5-34.5-101.5-44.6c0-44.6,73.1-40.6,172.5,8.1c81.2,40.6,111.6,46.7,129.9,28.4c24.3-24.4,52.8,0,101.5,83.2c8.1,14.2,62.9,38.6,123.8,54.8c140.1,36.5,168.5,77.1,65,95.4c-40.6,8.1-97.4,18.3-125.8,24.4C8175-2981.6,8089.8-2995.8,8010.6-3018.1z"/><path d="M6660.9-3180.5c0-10.1,10.2-14.2,20.3-8.1c12.2,6.1,20.3,16.2,20.3,22.3c0,4.1-8.1,8.1-20.3,8.1C6671-3158.2,6660.9-3168.3,6660.9-3180.5z"/><path d="M7340.8-3430.2c-46.7-20.3-52.8-28.4-26.4-38.6c40.6-14.2,178.6,20.3,178.6,46.7C7493-3393.6,7413.9-3397.7,7340.8-3430.2z"/><path d="M9303.5-3547.9c-12.2-16.2-14.2-38.5-6.1-52.8c12.2-20.3,20.3-20.3,38.6,0c12.2,16.2,14.2,38.5,6.1,52.8C9329.9-3527.6,9321.8-3527.6,9303.5-3547.9z"/></g></g>
</svg>