<?xml version="1.0" standalone="no"?>
<!DOCTYPE svg PUBLIC "-//W3C//DTD SVG 20010904//EN"
 "http://www.w3.org/TR/2001/REC-SVG-20010904/DTD/svg10.dtd">
<svg version="1.0" xmlns="http://www.w3.org/2000/svg"
 width="1280.000000pt" height="878.000000pt" viewBox="0 0 1280.000000 878.000000"
 preserveAspectRatio="xMidYMid meet">
<metadata>
Created by potrace 1.15, written by Peter Selinger 2001-2017
</metadata>
<g transform="translate(0.000000,878.000000) scale(0.100000,-0.100000)"
fill="#000000" stroke="none">
<path d="M115 8700 c3 -5 13 -10 21 -10 8 0 12 5 9 10 -3 6 -13 10 -21 10 -8
0 -12 -4 -9 -10z"/>
<path d="M86 8676 c3 -9 11 -16 16 -16 13 0 5 23 -10 28 -7 2 -10 -2 -6 -12z"/>
<path d="M125 8660 c-16 -17 -17 -25 -7 -58 6 -20 23 -53 37 -71 37 -51 153
-151 175 -151 11 0 32 -16 47 -36 15 -21 42 -53 60 -73 17 -20 33 -49 35 -65
3 -30 7 -33 73 -60 60 -25 86 -49 90 -82 2 -16 17 -67 34 -113 27 -76 34 -86
65 -99 21 -8 39 -24 46 -42 6 -15 25 -41 42 -56 16 -16 41 -51 54 -79 13 -27
35 -70 49 -95 14 -25 25 -55 25 -68 0 -25 46 -84 145 -187 33 -35 70 -76 82
-92 12 -16 66 -59 120 -95 55 -36 116 -87 137 -112 52 -63 65 -76 82 -76 12 0
12 4 -1 30 -18 35 -11 37 30 10 40 -27 55 -25 55 6 l0 26 30 -32 c16 -17 35
-30 42 -28 17 6 27 80 26 189 0 48 3 92 6 98 4 6 2 20 -4 31 -9 16 -7 26 10
49 26 38 25 55 -4 74 -12 9 -30 31 -39 50 -15 31 -22 35 -67 41 -28 4 -56 3
-63 -1 -8 -4 -7 -1 2 10 12 15 9 20 -18 46 -21 20 -31 38 -31 59 0 17 -4 42
-10 56 -8 23 -15 26 -54 26 -32 0 -52 6 -70 23 -25 21 -25 23 -8 43 10 11 24
23 32 26 12 5 11 7 -4 14 -13 5 -21 3 -24 -4 -5 -17 -19 -15 -19 3 0 8 13 20
29 27 32 15 36 38 10 60 -29 25 -52 29 -85 11 -29 -15 -31 -15 -19 0 16 19 9
35 -22 47 -16 7 -17 9 -4 9 10 1 26 -8 37 -20 11 -13 24 -18 32 -14 9 6 7 12
-6 21 -10 8 -15 17 -12 21 11 10 -34 53 -55 53 -10 0 -18 -4 -18 -10 0 -5 4
-10 8 -10 5 0 17 -7 28 -15 18 -14 17 -14 -11 -4 -16 5 -33 15 -36 21 -11 18
-42 0 -35 -20 5 -14 3 -14 -9 2 -8 11 -15 25 -15 32 0 27 -51 74 -80 74 -16 0
-31 4 -34 8 -2 4 8 8 22 7 21 0 28 5 30 23 4 28 -23 40 -46 19 -16 -15 -19
-14 -37 14 -24 35 -60 37 -59 2 0 -20 -1 -21 -23 -5 -13 10 -33 34 -44 55 -10
20 -26 37 -34 37 -8 0 -15 7 -15 15 0 15 -83 83 -153 124 -22 13 -49 33 -59
43 -10 10 -22 18 -27 18 -5 0 -12 13 -16 30 -4 16 -15 32 -26 35 -10 4 -19 14
-19 24 0 9 -15 32 -34 50 -33 32 -36 33 -134 35 -93 2 -103 4 -149 34 -58 38
-64 38 -88 12z m1115 -790 c-8 -5 -24 -9 -35 -9 -16 1 -16 2 5 9 35 11 48 11
30 0z"/>
<path d="M4774 8496 c-3 -8 -4 -21 -1 -28 2 -7 -2 -20 -10 -29 -12 -14 -11
-19 6 -40 11 -14 23 -20 28 -15 4 5 2 11 -4 13 -18 6 -16 28 2 43 19 16 19 44
0 60 -12 10 -16 9 -21 -4z"/>
<path d="M3145 8457 c-7 -12 -16 -44 -20 -72 -10 -84 -14 -94 -43 -107 -28
-14 -45 -68 -21 -68 6 0 -3 -10 -22 -23 -22 -15 -33 -30 -31 -42 2 -10 -4 -35
-13 -55 -15 -32 -19 -35 -50 -32 -19 2 -48 -3 -66 -12 -42 -21 -55 -20 -96 5
-52 33 -163 22 -163 -15 0 -24 -39 -39 -120 -47 -41 -4 -87 -10 -102 -14 -24
-6 -35 0 -88 50 -40 39 -60 66 -60 82 0 12 -6 23 -13 23 -27 0 -94 -90 -82
-109 3 -5 -1 -11 -7 -14 -19 -6 -15 -113 5 -135 20 -24 30 -59 17 -67 -15 -9
-12 -41 4 -55 8 -6 16 -21 18 -33 2 -15 9 -21 21 -19 16 3 17 0 7 -18 -19 -36
8 -54 40 -25 15 14 19 13 35 -5 17 -19 17 -23 3 -54 -12 -25 -14 -36 -5 -45
14 -14 36 -96 37 -135 0 -25 3 -28 25 -24 14 3 28 1 31 -4 3 -5 12 -7 20 -4 8
3 14 1 14 -5 0 -6 4 -8 9 -5 5 4 36 10 69 14 59 8 61 8 67 -16 3 -13 3 -32 0
-42 -9 -29 12 -33 46 -9 23 16 33 19 42 10 19 -19 47 -12 76 19 24 27 29 29
41 15 7 -8 22 -15 34 -15 12 0 27 -9 33 -19 11 -17 17 -18 48 -8 49 15 88 -13
95 -69 3 -21 10 -39 15 -39 6 0 48 17 95 38 68 30 88 44 99 68 7 17 16 28 19
24 3 -3 0 -11 -6 -17 -17 -17 -16 -98 1 -98 20 0 37 22 37 48 0 13 4 20 10 17
6 -4 10 5 10 20 0 14 -4 24 -8 21 -5 -3 -15 6 -23 20 -12 23 -11 27 4 35 9 6
17 21 17 34 0 14 4 25 8 25 12 0 30 42 25 58 -3 6 -12 12 -20 12 -13 0 -13 3
-3 15 9 11 10 18 1 28 -8 11 -4 20 18 43 17 17 26 35 23 44 -5 13 -3 13 11 2
14 -12 19 -10 39 13 13 15 37 32 53 39 22 10 30 20 31 39 1 18 -3 27 -13 27
-13 0 -15 9 -9 46 8 61 41 134 60 134 9 0 16 4 16 10 0 6 9 6 26 0 39 -15 100
-12 115 6 11 14 8 20 -21 45 -19 16 -56 43 -82 61 -46 31 -60 59 -38 73 6 3
10 14 10 23 0 23 -78 132 -95 132 -8 0 -12 12 -11 33 1 28 5 33 35 37 45 7 51
28 12 41 -33 12 -40 26 -16 35 8 4 13 10 10 15 -3 4 -12 6 -19 3 -8 -3 -17 0
-21 6 -4 7 -48 10 -121 9 -106 -1 -116 -3 -129 -22z"/>
<path d="M3442 8445 c-13 -7 -20 -15 -15 -18 12 -8 53 3 53 14 0 14 -15 16
-38 4z"/>
<path d="M4620 8376 c0 -25 12 -46 26 -46 17 0 18 14 4 41 -12 22 -30 25 -30
5z"/>
<path d="M3455 8350 c3 -5 11 -10 16 -10 6 0 7 5 4 10 -3 6 -11 10 -16 10 -6
0 -7 -4 -4 -10z"/>
<path d="M3417 8344 c-8 -8 1 -24 14 -24 5 0 9 7 9 15 0 15 -12 20 -23 9z"/>
<path d="M187 8263 c-14 -13 -6 -24 40 -53 51 -33 86 -40 77 -15 -4 8 -10 15
-14 15 -5 0 -22 14 -38 30 -30 29 -52 37 -65 23z"/>
<path d="M4576 8241 c-4 -5 -2 -12 3 -15 5 -4 12 -2 15 3 4 5 2 12 -3 15 -5 4
-12 2 -15 -3z"/>
<path d="M5018 8211 c-7 -12 -19 -21 -26 -21 -8 0 -11 -6 -8 -12 3 -7 9 -21
12 -30 16 -44 79 4 72 54 -4 30 -33 35 -50 9z"/>
<path d="M4575 8180 c3 -5 8 -10 11 -10 2 0 4 5 4 10 0 6 -5 10 -11 10 -5 0
-7 -4 -4 -10z"/>
<path d="M3566 8165 c4 -8 8 -15 10 -15 2 0 4 7 4 15 0 8 -4 15 -10 15 -5 0
-7 -7 -4 -15z"/>
<path d="M393 8150 c-2 -22 5 -25 27 -10 13 9 13 11 0 20 -21 14 -26 12 -27
-10z"/>
<path d="M315 8150 c3 -5 10 -10 16 -10 5 0 9 5 9 10 0 6 -7 10 -16 10 -8 0
-12 -4 -9 -10z"/>
<path d="M4926 8137 c-32 -32 -62 -135 -46 -160 8 -14 8 -22 -1 -33 -10 -12
-8 -17 6 -28 11 -8 20 -32 24 -68 5 -47 12 -63 48 -102 59 -64 87 -62 39 3
-30 41 -36 57 -36 100 0 28 1 51 3 51 1 0 31 -9 67 -20 36 -11 66 -20 67 -20
1 0 -6 13 -15 30 -9 16 -30 35 -46 42 l-29 12 32 26 c41 35 56 100 23 100 -26
0 -72 -20 -72 -32 0 -4 0 -10 0 -13 -1 -9 -52 -56 -57 -52 -2 3 7 22 22 42 29
43 32 70 9 79 -14 5 -14 8 0 28 9 12 16 26 16 30 0 16 -32 7 -54 -15z"/>
<path d="M590 8080 c0 -5 7 -10 16 -10 8 0 12 5 9 10 -3 6 -10 10 -16 10 -5 0
-9 -4 -9 -10z"/>
<path d="M4492 8065 c-12 -14 -26 -25 -32 -25 -5 0 -10 -6 -10 -13 0 -8 -24
-26 -53 -40 -45 -23 -57 -26 -87 -17 -19 6 -55 7 -80 4 -25 -3 -58 -1 -73 5
-15 6 -52 13 -82 17 -29 3 -70 14 -91 25 -49 24 -75 24 -81 -1 -3 -11 -12 -20
-19 -20 -8 0 -14 -9 -14 -20 0 -11 -6 -20 -13 -20 -21 0 -28 12 -16 27 6 7 8
13 4 13 -11 0 -65 -63 -65 -76 0 -7 -7 -15 -15 -18 -11 -4 -16 -19 -15 -48 1
-84 -5 -112 -28 -135 -34 -34 -54 -88 -46 -128 4 -23 1 -41 -10 -57 -9 -12
-16 -30 -16 -40 0 -9 -15 -31 -32 -48 -23 -21 -29 -33 -21 -38 6 -4 13 -30 15
-57 l3 -50 43 3 c37 3 42 1 42 -18 0 -12 5 -31 11 -42 9 -16 8 -39 -1 -92 -7
-39 -17 -75 -22 -80 -14 -17 -9 -46 12 -64 15 -12 38 -17 83 -17 l61 0 1 -57
c0 -32 5 -59 10 -60 19 -5 16 66 -5 134 -12 37 -18 73 -14 80 5 7 9 67 11 133
2 91 -1 125 -12 142 -20 30 -20 30 25 53 60 31 70 27 70 -24 0 -25 -4 -48 -10
-51 -29 -18 -1 -59 70 -106 23 -15 23 -19 13 -53 -10 -33 -9 -40 8 -57 20 -20
55 -25 78 -10 7 5 11 14 7 19 -9 15 30 34 70 34 23 0 38 6 44 18 6 10 20 20
32 22 12 2 23 8 25 14 6 17 -25 26 -47 14 -14 -8 -26 -3 -57 23 -39 32 -42 41
-20 85 8 16 8 25 1 30 -6 4 -13 12 -15 19 -8 23 -121 143 -135 143 -8 0 -14 5
-14 10 0 13 13 13 27 -1 9 -9 19 -5 42 14 17 14 41 29 53 33 13 3 46 28 75 55
53 50 68 58 75 37 5 -15 37 -3 44 17 10 26 -15 45 -62 45 -23 0 -46 -4 -49
-10 -3 -5 -21 -10 -39 -10 -19 0 -39 -7 -46 -15 -15 -18 -66 -20 -73 -2 -3 7
-22 -6 -51 -35 -47 -49 -96 -66 -96 -33 0 9 -20 35 -45 59 -50 49 -56 79 -31
141 20 47 54 67 93 56 17 -5 100 -7 183 -4 133 4 154 2 171 -13 15 -14 30 -16
84 -10 90 9 104 16 155 82 25 31 53 65 63 76 18 19 18 21 1 39 -23 25 -36 24
-62 -6z"/>
<path d="M1120 8073 c0 -14 31 -39 58 -47 25 -8 31 14 9 32 -18 15 -67 26 -67
15z"/>
<path d="M408 8053 c-10 -2 -18 -7 -18 -10 0 -3 20 -30 44 -60 25 -29 46 -59
49 -66 7 -21 37 13 37 42 0 18 -13 39 -38 64 -38 37 -42 39 -74 30z"/>
<path d="M4720 8029 c0 -5 5 -7 10 -4 6 3 10 8 10 11 0 2 -4 4 -10 4 -5 0 -10
-5 -10 -11z"/>
<path d="M1396 7993 c-9 -22 -8 -23 14 -23 11 0 20 -6 20 -14 0 -7 7 -19 15
-26 13 -10 15 -9 15 12 0 13 -6 30 -12 38 -7 8 -2 6 12 -5 14 -11 28 -24 33
-30 4 -6 11 -4 17 5 24 38 3 58 -62 58 -32 0 -48 -4 -52 -15z"/>
<path d="M1310 7990 c0 -5 7 -10 16 -10 8 0 12 5 9 10 -3 6 -10 10 -16 10 -5
0 -9 -4 -9 -10z"/>
<path d="M1930 7980 c0 -5 5 -10 10 -10 6 0 10 5 10 10 0 6 -4 10 -10 10 -5 0
-10 -4 -10 -10z"/>
<path d="M1317 7964 c-8 -9 11 -44 24 -44 6 0 9 10 7 22 -3 22 -19 34 -31 22z"/>
<path d="M1367 7963 c-14 -13 -6 -21 18 -19 28 1 33 11 9 20 -19 7 -19 7 -27
-1z"/>
<path d="M4855 7960 c-3 -5 -1 -10 4 -10 6 0 11 5 11 10 0 6 -2 10 -4 10 -3 0
-8 -4 -11 -10z"/>
<path d="M5420 7914 c0 -8 5 -12 10 -9 6 3 10 10 10 16 0 5 -4 9 -10 9 -5 0
-10 -7 -10 -16z"/>
<path d="M5390 7900 c0 -5 5 -10 11 -10 5 0 7 5 4 10 -3 6 -8 10 -11 10 -2 0
-4 -4 -4 -10z"/>
<path d="M1466 7878 c5 -7 10 -29 11 -49 3 -31 0 -39 -17 -44 -24 -8 -25 -18
-5 -35 23 -19 50 -8 47 19 -2 20 1 22 23 17 22 -6 25 -3 23 19 -2 16 -7 24
-15 21 -7 -3 -13 0 -13 8 0 7 -11 22 -25 34 -28 24 -40 28 -29 10z"/>
<path d="M4860 7880 c0 -5 5 -10 10 -10 6 0 10 5 10 10 0 6 -4 10 -10 10 -5 0
-10 -4 -10 -10z"/>
<path d="M615 7850 c28 -12 47 -12 40 0 -3 6 -18 10 -33 9 -24 0 -25 -1 -7 -9z"/>
<path d="M4874 7849 c-3 -6 -1 -16 5 -22 8 -8 11 -5 11 11 0 24 -5 28 -16 11z"/>
<path d="M570 7827 c0 -15 37 -53 45 -46 7 7 -19 52 -32 57 -7 2 -13 -3 -13
-11z"/>
<path d="M3720 7830 c0 -5 5 -10 10 -10 6 0 10 5 10 10 0 6 -4 10 -10 10 -5 0
-10 -4 -10 -10z"/>
<path d="M5168 7818 c12 -12 25 -18 29 -14 4 4 -1 14 -11 22 -31 22 -43 17
-18 -8z"/>
<path d="M5365 7831 c-11 -3 -29 -12 -40 -18 -18 -12 -19 -14 -3 -23 9 -6 15
-17 12 -25 -8 -21 18 -19 41 3 12 11 30 16 51 14 38 -5 50 10 26 30 -21 19
-61 28 -87 19z"/>
<path d="M4015 7810 c3 -5 8 -10 11 -10 2 0 4 5 4 10 0 6 -5 10 -11 10 -5 0
-7 -4 -4 -10z"/>
<path d="M4100 7800 c0 -5 7 -10 16 -10 8 0 12 5 9 10 -3 6 -10 10 -16 10 -5
0 -9 -4 -9 -10z"/>
<path d="M4062 7783 c-6 -10 -13 -17 -16 -15 -13 5 -26 1 -26 -8 0 -5 6 -10
13 -10 22 0 67 24 64 34 -6 18 -25 17 -35 -1z"/>
<path d="M4827 7793 c-3 -5 -1 -16 2 -26 6 -17 8 -17 20 -3 7 8 10 20 6 26 -7
12 -22 13 -28 3z"/>
<path d="M574 7775 c-6 -16 9 -34 29 -35 13 0 8 27 -8 40 -12 10 -16 9 -21 -5z"/>
<path d="M4870 7762 c0 -18 -5 -29 -12 -28 -7 0 -14 -3 -16 -9 -1 -5 8 -10 20
-11 13 -1 37 -4 55 -8 35 -8 59 12 25 21 -13 3 -22 15 -24 32 -2 18 -10 27
-25 29 -19 3 -23 -1 -23 -26z"/>
<path d="M5585 7776 c-17 -7 -36 -20 -43 -29 -8 -9 -34 -19 -58 -23 -40 -6
-44 -9 -44 -35 0 -15 -4 -31 -10 -34 -6 -4 -9 4 -7 17 1 17 -4 24 -19 26 -24
3 -47 -19 -39 -39 10 -25 70 -57 97 -52 30 6 78 -22 78 -44 0 -8 12 -27 28
-42 27 -28 29 -28 132 -25 120 4 147 0 129 -22 -6 -7 -15 -11 -20 -8 -5 3 -28
7 -50 9 -33 4 -45 0 -62 -19 -19 -20 -29 -23 -72 -19 -28 2 -56 0 -63 -5 -18
-13 -4 -42 22 -42 30 -1 111 -76 93 -87 -10 -6 -11 -16 -5 -40 15 -56 72 -52
103 7 9 17 17 30 18 30 10 0 82 -42 82 -48 0 -4 19 -6 43 -6 33 1 40 -1 32
-11 -21 -25 49 -65 114 -65 32 0 76 -13 140 -40 51 -22 97 -40 102 -40 5 1 39
-14 76 -32 44 -22 67 -39 67 -50 1 -10 6 -18 12 -18 5 0 7 -4 4 -10 -3 -5 -2
-10 4 -10 5 0 12 -14 16 -30 8 -37 48 -86 90 -111 l30 -19 -32 0 c-25 0 -31 4
-27 15 4 8 2 15 -3 15 -17 0 -13 -49 5 -59 13 -8 14 -10 2 -11 -10 0 -4 -9 15
-26 29 -24 29 -25 2 -8 -26 16 -30 16 -73 -1 -36 -14 -50 -27 -74 -68 -44 -76
-41 -83 30 -82 44 0 62 4 66 15 3 8 17 25 32 36 l27 21 1 -24 c2 -18 -2 -22
-16 -18 -9 3 -23 -1 -30 -10 -11 -13 -8 -15 19 -15 17 0 31 4 31 9 0 12 35 21
92 25 26 2 55 9 63 16 13 11 15 10 13 -7 -2 -13 21 -42 73 -91 l77 -72 97 0
c53 0 104 -4 114 -10 28 -15 141 38 141 65 0 12 -6 27 -12 34 -8 8 -1 7 20 -3
19 -10 32 -12 32 -6 0 6 -7 13 -17 17 -14 5 -13 8 6 15 12 4 19 12 16 18 -11
18 6 50 26 50 22 0 23 4 9 31 -10 18 -9 18 16 7 21 -10 28 -10 31 -1 3 7 11 9
19 6 8 -3 14 0 14 5 0 6 19 3 44 -8 24 -11 74 -26 112 -34 74 -16 77 -18 133
-110 18 -31 39 -56 45 -56 6 0 17 -13 23 -30 6 -16 23 -34 37 -39 14 -6 33
-22 43 -37 20 -31 71 -55 100 -48 12 3 24 1 27 -5 4 -6 31 -11 59 -11 75 -1
236 -38 176 -41 -8 0 -6 -4 6 -9 30 -13 99 -12 113 2 9 9 12 9 12 0 0 -7 5
-12 10 -12 21 0 8 19 -20 29 -30 10 -41 23 -17 20 25 -3 47 1 47 10 0 5 -21
11 -47 13 -81 8 -160 58 -92 58 42 0 11 25 -37 30 -76 8 -80 14 -56 79 4 12
-6 13 -56 8 -55 -4 -62 -3 -62 13 0 9 -9 29 -20 43 -11 14 -23 39 -26 57 -5
24 -13 32 -36 37 -16 3 -33 14 -38 23 -5 10 -25 28 -45 40 -21 13 -38 33 -44
53 -5 18 -12 40 -16 50 -7 17 -4 18 46 12 92 -11 112 25 52 95 -17 21 -34 30
-55 30 -16 0 -55 13 -86 29 -31 16 -75 33 -97 38 -39 8 -40 9 -40 49 -1 53
-24 88 -75 110 -32 14 -39 22 -35 38 3 12 2 16 -1 9 -6 -13 -63 12 -77 35 -4
6 -23 12 -41 12 -20 0 -48 11 -72 28 -24 18 -64 33 -104 41 -36 7 -110 33
-164 58 -55 25 -116 46 -137 47 -20 1 -43 7 -51 14 -8 6 -41 14 -74 18 -54 5
-189 56 -308 116 -44 22 -71 18 -124 -14 -24 -15 -32 -26 -29 -39 7 -24 -4
-30 -66 -38 -41 -5 -53 -10 -55 -26 -3 -10 -16 -31 -31 -45 -14 -15 -41 -43
-60 -63 -35 -38 -65 -46 -102 -27 -11 6 -19 21 -19 36 0 14 -4 23 -9 20 -5 -3
-11 13 -14 35 -3 22 -8 43 -10 46 -11 10 -27 -9 -27 -30 0 -19 -3 -17 -21 13
-19 30 -20 41 -12 73 9 31 8 37 -3 33 -12 -5 -12 -1 0 22 11 21 12 32 3 47 -6
11 -13 33 -17 50 -5 28 -9 30 -60 36 -32 3 -76 17 -104 32 -54 30 -77 32 -121
13z m228 -426 c-3 -12 -8 -19 -11 -16 -5 6 5 36 12 36 2 0 2 -9 -1 -20z m784
-662 c-3 -8 -6 -5 -6 6 -1 11 2 17 5 13 3 -3 4 -12 1 -19z m646 -91 c3 -9 -4
-12 -22 -11 -36 2 -38 3 -21 14 21 13 37 12 43 -3z"/>
<path d="M6050 7731 c0 -6 11 -13 25 -17 14 -3 32 -19 41 -35 11 -21 22 -29
42 -29 33 0 64 19 44 27 -7 3 -25 16 -41 29 -31 26 -111 44 -111 25z"/>
<path d="M5330 7710 c-26 -16 -4 -20 36 -6 38 14 38 15 9 15 -16 0 -37 -3 -45
-9z"/>
<path d="M615 7680 c-11 -34 51 -120 87 -120 24 0 23 15 -9 82 -21 44 -33 58
-50 58 -13 0 -24 -8 -28 -20z"/>
<path d="M5972 7684 c1 -9 9 -19 16 -22 9 -3 13 2 10 14 -1 9 -9 19 -16 22 -9
3 -13 -2 -10 -14z"/>
<path d="M4206 7654 c-16 -16 -21 -46 -9 -57 3 -4 17 0 29 8 21 13 23 13 18 0
-4 -8 -1 -15 5 -15 6 0 11 7 11 15 0 11 7 14 25 9 21 -5 25 -3 25 14 0 28 -20
39 -35 19 -7 -10 -16 -17 -20 -17 -4 0 -2 6 4 13 23 28 -26 38 -53 11z"/>
<path d="M5225 7660 c-3 -5 3 -10 14 -10 12 0 21 5 21 10 0 6 -6 10 -14 10 -8
0 -18 -4 -21 -10z"/>
<path d="M2170 7650 c-13 -8 -13 -10 2 -10 9 0 20 5 23 10 8 13 -5 13 -25 0z"/>
<path d="M4891 7644 c12 -15 11 -16 -10 -9 -21 6 -22 5 -16 -17 10 -33 15 -36
70 -40 66 -4 74 20 16 49 -22 11 -38 23 -34 27 3 3 -4 6 -17 6 -20 0 -21 -2
-9 -16z"/>
<path d="M8157 7633 c-9 -9 12 -33 30 -33 11 0 11 4 3 20 -11 21 -22 25 -33
13z"/>
<path d="M1675 7610 c-3 -4 -2 -16 2 -26 4 -12 3 -15 -5 -10 -7 4 -12 14 -12
22 0 21 -30 14 -44 -11 -6 -11 -17 -24 -23 -28 -33 -21 4 -56 46 -42 22 7 36
-9 48 -55 7 -28 19 -41 59 -62 64 -36 108 -36 73 -1 -8 8 -8 17 0 31 15 29 15
30 -18 37 -38 8 -47 19 -63 84 -10 39 -20 56 -36 62 -12 4 -24 4 -27 -1z"/>
<path d="M6015 7610 c3 -5 13 -10 21 -10 8 0 14 5 14 10 0 6 -9 10 -21 10 -11
0 -17 -4 -14 -10z"/>
<path d="M2116 7594 c-9 -24 -8 -26 14 -14 11 6 20 15 20 20 0 16 -27 11 -34
-6z"/>
<path d="M4433 7588 c-6 -7 -14 -23 -17 -35 -6 -20 -4 -23 21 -23 15 0 44 5
63 10 19 6 61 7 93 4 47 -6 57 -10 57 -26 0 -26 19 -60 30 -53 5 3 5 19 -1 38
-13 45 -12 47 15 47 14 0 28 5 31 10 4 6 -23 10 -72 10 -44 0 -83 4 -88 9 -18
16 -121 23 -132 9z"/>
<path d="M6065 7592 c30 -30 182 -53 215 -32 12 7 10 11 -10 18 -37 14 -217
26 -205 14z"/>
<path d="M4265 7580 c-3 -5 -2 -10 4 -10 5 0 13 5 16 10 3 6 2 10 -4 10 -5 0
-13 -4 -16 -10z"/>
<path d="M5253 7575 c-42 -18 -42 -31 2 -45 44 -14 78 1 73 33 -4 27 -32 32
-75 12z"/>
<path d="M4236 7571 c-4 -7 -5 -15 -2 -18 9 -9 19 4 14 18 -4 11 -6 11 -12 0z"/>
<path d="M4322 7548 c3 -7 13 -15 22 -16 12 -3 17 1 14 10 -3 7 -13 15 -22 16
-12 3 -17 -1 -14 -10z"/>
<path d="M7712 7537 c-17 -20 -5 -27 50 -27 49 0 88 13 88 29 0 15 -126 13
-138 -2z"/>
<path d="M754 7527 c-8 -23 17 -50 41 -45 16 3 16 6 -8 33 -23 27 -26 28 -33
12z"/>
<path d="M5900 7526 c0 -9 5 -16 10 -16 6 0 10 4 10 9 0 6 -4 13 -10 16 -5 3
-10 -1 -10 -9z"/>
<path d="M7895 7500 c-3 -5 -1 -10 4 -10 6 0 11 5 11 10 0 6 -2 10 -4 10 -3 0
-8 -4 -11 -10z"/>
<path d="M8220 7480 c-13 -8 -12 -11 5 -24 22 -17 75 -21 75 -7 0 16 -30 41
-48 41 -9 0 -24 -5 -32 -10z"/>
<path d="M810 7453 c0 -28 15 -44 33 -38 12 5 14 2 11 -12 -3 -11 4 -30 15
-44 17 -20 22 -21 30 -10 7 10 -1 29 -28 65 -41 54 -61 68 -61 39z"/>
<path d="M1945 7426 c-11 -57 -4 -70 38 -71 31 -2 40 3 57 29 l20 31 -26 23
c-14 12 -38 22 -54 22 -25 0 -30 -5 -35 -34z"/>
<path d="M8344 7451 c4 -6 2 -11 -4 -11 -6 0 -8 -4 -5 -10 3 -5 13 -10 22 -10
9 0 39 -17 67 -37 28 -20 73 -49 101 -63 55 -28 95 -84 95 -136 0 -18 8 -38
20 -49 20 -18 21 -18 35 1 36 49 23 99 -33 128 -15 8 -45 33 -67 56 -23 24
-79 62 -130 88 -112 58 -109 57 -101 43z"/>
<path d="M8512 7436 c-1 -13 5 -29 13 -36 18 -15 19 -7 5 21 -8 13 -7 19 0 19
6 0 8 5 5 10 -11 17 -21 11 -23 -14z"/>
<path d="M5159 7415 c-12 -12 -21 -14 -41 -6 -31 12 -127 11 -134 -1 -3 -4
-14 -8 -24 -8 -10 0 -22 -5 -26 -12 -5 -8 -2 -9 9 -5 18 7 24 -8 7 -18 -13 -8
-3 -25 16 -25 8 0 14 7 14 16 0 13 6 11 25 -10 28 -30 42 -32 73 -10 20 14 24
14 44 0 26 -19 59 -21 75 -5 9 9 33 1 96 -30 47 -22 88 -41 91 -41 3 0 6 16 6
35 0 24 -5 35 -15 35 -8 0 -15 8 -15 18 0 25 -20 42 -49 42 -15 1 -44 8 -66
16 -66 25 -69 26 -86 9z"/>
<path d="M1860 7410 c0 -5 5 -10 10 -10 6 0 10 5 10 10 0 6 -4 10 -10 10 -5 0
-10 -4 -10 -10z"/>
<path d="M1910 7410 c0 -5 5 -10 10 -10 6 0 10 5 10 10 0 6 -4 10 -10 10 -5 0
-10 -4 -10 -10z"/>
<path d="M1830 7395 c7 -9 15 -13 17 -11 7 7 -7 26 -19 26 -6 0 -6 -6 2 -15z"/>
<path d="M8340 7400 c0 -5 9 -10 20 -10 11 0 20 5 20 10 0 6 -9 10 -20 10 -11
0 -20 -4 -20 -10z"/>
<path d="M4740 7386 c-3 -2 -19 -6 -35 -9 -74 -9 -16 -107 63 -107 46 0 86 20
90 43 4 19 -40 67 -61 67 -7 0 -21 3 -32 6 -11 3 -23 3 -25 0z"/>
<path d="M8602 7379 c2 -6 8 -10 13 -10 5 0 11 4 13 10 2 6 -4 11 -13 11 -9 0
-15 -5 -13 -11z"/>
<path d="M4910 7360 c0 -5 -8 -10 -17 -10 -15 0 -16 -2 -3 -10 20 -13 33 -13
25 0 -3 6 -1 10 4 10 6 0 11 5 11 10 0 6 -4 10 -10 10 -5 0 -10 -4 -10 -10z"/>
<path d="M8695 7330 c-3 -5 1 -10 9 -10 8 0 18 5 21 10 3 6 -1 10 -9 10 -8 0
-18 -4 -21 -10z"/>
<path d="M5645 7320 c3 -5 11 -10 16 -10 6 0 7 5 4 10 -3 6 -11 10 -16 10 -6
0 -7 -4 -4 -10z"/>
<path d="M4977 7308 c-32 -11 -31 -30 1 -34 13 -3 25 3 32 15 18 34 14 36 -33
19z"/>
<path d="M4235 7300 c3 -5 8 -10 11 -10 2 0 4 5 4 10 0 6 -5 10 -11 10 -5 0
-7 -4 -4 -10z"/>
<path d="M5030 7300 c0 -5 7 -10 15 -10 8 0 15 5 15 10 0 6 -7 10 -15 10 -8 0
-15 -4 -15 -10z"/>
<path d="M5070 7290 c0 -5 5 -10 11 -10 5 0 7 5 4 10 -3 6 -8 10 -11 10 -2 0
-4 -4 -4 -10z"/>
<path d="M5441 7238 c-1 -20 7 -22 29 -8 8 5 11 12 7 17 -5 4 -12 1 -16 -6 -7
-11 -10 -11 -14 0 -4 10 -6 9 -6 -3z"/>
<path d="M5745 7221 c-3 -5 9 -14 25 -20 17 -5 30 -6 30 -2 0 12 -49 31 -55
22z"/>
<path d="M8535 7221 c-4 -7 -22 -8 -47 -4 -40 6 -41 5 -34 -18 4 -13 9 -39 13
-56 5 -31 4 -33 -23 -33 -37 0 -47 -8 -68 -48 -15 -29 -21 -33 -56 -30 -22 1
-43 -1 -46 -5 -13 -13 -34 16 -34 47 -1 29 -1 30 -15 12 -8 -11 -15 -28 -15
-38 0 -24 -39 -32 -113 -23 -82 10 -107 9 -120 -4 -18 -18 3 -42 49 -58 21 -7
44 -20 50 -28 9 -12 18 -13 36 -6 20 8 28 5 42 -11 16 -18 26 -20 80 -15 73 6
179 50 201 83 11 17 25 24 48 24 18 0 42 6 52 14 17 12 18 17 7 40 -16 35 -15
36 8 36 10 0 24 9 30 21 12 22 4 79 -11 79 -5 0 -8 5 -6 11 3 15 -19 23 -28
10z"/>
<path d="M4209 7167 c-8 -17 -17 -23 -32 -20 -35 6 -49 -11 -54 -66 -3 -45 -1
-51 15 -51 11 0 22 -9 25 -20 6 -24 47 -28 47 -5 0 9 11 20 25 25 29 11 30 17
10 44 -19 25 -19 50 -1 43 22 -9 25 14 8 46 -20 33 -29 34 -43 4z m-23 -94
c-8 -15 -15 -25 -16 -21 0 12 23 58 27 54 3 -2 -2 -17 -11 -33z"/>
<path d="M5490 7170 c0 -5 5 -10 11 -10 5 0 7 5 4 10 -3 6 -8 10 -11 10 -2 0
-4 -4 -4 -10z"/>
<path d="M5240 7159 c0 -5 5 -7 10 -4 6 3 10 8 10 11 0 2 -4 4 -10 4 -5 0 -10
-5 -10 -11z"/>
<path d="M7614 7159 c-10 -17 13 -36 27 -22 12 12 4 33 -11 33 -5 0 -12 -5
-16 -11z"/>
<path d="M8148 7143 c7 -3 16 -2 19 1 4 3 -2 6 -13 5 -11 0 -14 -3 -6 -6z"/>
<path d="M3157 7133 c-4 -3 -7 -11 -7 -17 0 -6 5 -5 12 2 6 6 9 14 7 17 -3 3
-9 2 -12 -2z"/>
<path d="M4057 7083 c-11 -10 -8 -51 4 -59 18 -10 32 13 25 40 -6 26 -16 32
-29 19z"/>
<path d="M7782 7054 c2 -11 11 -20 22 -22 13 -3 17 1 14 14 -2 11 -11 20 -22
22 -13 3 -17 -1 -14 -14z"/>
<path d="M4300 7050 c0 -5 5 -10 10 -10 6 0 10 5 10 10 0 6 -4 10 -10 10 -5 0
-10 -4 -10 -10z"/>
<path d="M1144 7035 c24 -18 39 -20 34 -2 -3 6 -15 13 -29 15 -23 2 -23 2 -5
-13z"/>
<path d="M5697 7008 c-14 -39 -16 -40 -16 -15 -1 40 -25 29 -29 -13 -3 -26 0
-32 12 -27 9 4 16 2 16 -3 0 -24 17 -6 35 37 11 26 22 51 23 55 2 4 -3 8 -11
8 -9 0 -22 -18 -30 -42z"/>
<path d="M5906 7010 c-15 -17 -23 -30 -17 -30 7 0 9 -9 5 -24 -4 -16 2 -32 18
-51 23 -26 25 -27 42 -9 14 14 17 28 13 67 -2 26 -11 55 -18 63 -12 12 -18 9
-43 -16z"/>
<path d="M4330 7021 c0 -5 5 -13 10 -16 6 -3 10 -2 10 4 0 5 -4 13 -10 16 -5
3 -10 2 -10 -4z"/>
<path d="M7890 7017 c0 -13 31 -47 42 -47 14 0 16 31 2 45 -19 19 -44 20 -44
2z"/>
<path d="M5600 7009 c0 -5 5 -7 10 -4 6 3 10 8 10 11 0 2 -4 4 -10 4 -5 0 -10
-5 -10 -11z"/>
<path d="M1525 6980 c3 -5 8 -10 11 -10 2 0 4 5 4 10 0 6 -5 10 -11 10 -5 0
-7 -4 -4 -10z"/>
<path d="M2685 6981 c-6 -11 9 -23 19 -14 9 9 7 23 -3 23 -6 0 -12 -4 -16 -9z"/>
<path d="M4360 6961 c0 -5 5 -13 10 -16 6 -3 10 -2 10 4 0 5 -4 13 -10 16 -5
3 -10 2 -10 -4z"/>
<path d="M1691 6934 c-6 -14 -11 -31 -11 -39 0 -8 -6 -15 -14 -15 -15 0 -26
-21 -26 -48 0 -13 10 -17 38 -19 48 -2 102 -13 102 -22 0 -4 -5 -12 -12 -19
-22 -22 10 -42 68 -42 35 0 77 -9 120 -26 36 -15 78 -26 93 -25 122 11 187 4
266 -29 83 -34 179 -53 253 -51 24 1 61 -3 82 -9 28 -7 51 -7 84 2 40 11 50
10 93 -9 61 -27 154 -56 160 -49 3 2 -5 17 -17 33 -17 24 -19 34 -10 57 16 42
12 54 -20 71 -25 13 -41 14 -96 5 -56 -9 -70 -8 -90 5 -13 9 -24 25 -24 38 0
20 5 22 58 22 32 1 74 8 97 18 37 17 38 19 20 29 -32 18 -157 15 -187 -4 -22
-15 -27 -15 -32 -3 -3 9 -19 15 -39 15 -18 0 -38 5 -44 11 -5 5 -35 13 -66 16
-37 4 -62 12 -73 24 -26 29 -50 23 -68 -16 -9 -19 -22 -35 -29 -36 -41 -3
-211 4 -231 9 -14 4 -35 23 -48 42 -21 31 -30 36 -81 41 -39 4 -65 13 -81 28
-23 22 -70 28 -81 11 -4 -6 -14 -8 -23 -6 -10 3 -40 8 -68 11 -47 4 -52 3 -63
-21z"/>
<path d="M5867 6933 c-3 -10 -6 -42 -6 -70 -2 -46 1 -53 17 -53 19 0 52 29 52
46 0 5 -13 28 -29 52 -23 34 -30 39 -34 25z"/>
<path d="M5967 6886 c-4 -10 -1 -13 9 -9 15 6 19 23 5 23 -5 0 -11 -7 -14 -14z"/>
<path d="M1580 6860 c-12 -8 -11 -10 8 -10 12 0 22 5 22 10 0 13 -11 13 -30 0z"/>
<path d="M5945 6849 c-4 -6 -5 -13 -2 -16 7 -7 27 6 27 18 0 12 -17 12 -25 -2z"/>
<path d="M5485 6840 c-3 -5 -2 -10 4 -10 5 0 13 5 16 10 3 6 2 10 -4 10 -5 0
-13 -4 -16 -10z"/>
<path d="M1595 6830 c-3 -5 3 -10 14 -10 12 0 21 5 21 10 0 6 -6 10 -14 10 -8
0 -18 -4 -21 -10z"/>
<path d="M3087 6823 c-14 -13 -6 -23 18 -23 28 0 34 15 9 24 -19 7 -19 7 -27
-1z"/>
<path d="M3872 6789 c2 -6 8 -10 13 -10 5 0 11 4 13 10 2 6 -4 11 -13 11 -9 0
-15 -5 -13 -11z"/>
<path d="M2940 6780 c0 -5 5 -10 10 -10 6 0 10 5 10 10 0 6 -4 10 -10 10 -5 0
-10 -4 -10 -10z"/>
<path d="M5050 6780 c0 -5 5 -10 10 -10 6 0 10 5 10 10 0 6 -4 10 -10 10 -5 0
-10 -4 -10 -10z"/>
<path d="M5488 6779 c-21 -12 -68 -89 -68 -113 0 -31 29 -29 57 5 45 52 53
131 11 108z"/>
<path d="M5520 6781 c0 -14 18 -23 31 -15 8 4 7 9 -2 15 -18 11 -29 11 -29 0z"/>
<path d="M3900 6750 c20 -13 63 -13 55 0 -3 6 -21 10 -38 10 -24 0 -28 -3 -17
-10z"/>
<path d="M4040 6739 c0 -5 5 -7 10 -4 6 3 10 8 10 11 0 2 -4 4 -10 4 -5 0 -10
-5 -10 -11z"/>
<path d="M5390 6730 c-8 -5 -12 -12 -8 -15 9 -9 48 4 48 16 0 12 -21 11 -40
-1z"/>
<path d="M4730 6710 c-8 -5 -30 -10 -48 -10 -26 0 -35 -5 -43 -26 -12 -33 -7
-39 19 -25 12 6 34 11 51 11 38 0 81 19 81 37 0 7 -4 13 -9 13 -5 0 -15 2 -23
5 -7 3 -20 0 -28 -5z"/>
<path d="M4865 6710 c-3 -5 1 -10 9 -10 8 0 18 5 21 10 3 6 -1 10 -9 10 -8 0
-18 -4 -21 -10z"/>
<path d="M5405 6700 c-3 -5 -1 -10 4 -10 6 0 11 5 11 10 0 6 -2 10 -4 10 -3 0
-8 -4 -11 -10z"/>
<path d="M5204 6675 c-7 -18 3 -35 21 -35 21 0 28 19 15 35 -16 19 -29 19 -36
0z"/>
<path d="M4840 6640 c0 -5 5 -10 10 -10 6 0 10 5 10 10 0 6 -4 10 -10 10 -5 0
-10 -4 -10 -10z"/>
<path d="M2970 6618 c0 -11 12 -23 27 -29 39 -14 63 -38 56 -55 -9 -25 13 -15
57 26 42 39 43 41 24 55 -23 18 -24 18 -101 19 -55 1 -63 -1 -63 -16z"/>
<path d="M3450 6625 c-15 -18 -16 -16 30 -44 l35 -21 -36 0 c-24 0 -39 5 -43
15 -8 22 -88 20 -114 -2 -12 -10 -23 -31 -24 -48 -3 -29 -2 -30 47 -33 32 -2
76 6 123 21 40 13 75 20 78 15 3 -4 23 -8 45 -8 24 0 38 4 34 10 -3 5 0 7 9 4
25 -10 39 6 19 22 -10 7 -14 14 -10 14 19 0 -16 40 -36 40 -12 0 -36 0 -53 0
-19 0 -34 6 -38 15 -7 19 -50 19 -66 0z"/>
<path d="M4185 6630 c-3 -5 -3 -14 0 -20 3 -5 1 -10 -6 -10 -7 0 -23 -9 -35
-21 -21 -20 -23 -20 -49 -3 -21 14 -32 15 -61 6 -29 -9 -43 -7 -80 9 -56 25
-129 27 -172 5 -27 -14 -33 -22 -30 -44 3 -25 6 -27 63 -31 145 -8 250 -2 335
21 47 13 83 27 80 33 -3 6 -9 9 -14 7 -5 -2 -6 4 -2 13 3 8 9 22 12 30 7 17
-31 22 -41 5z"/>
<path d="M4460 6632 c-14 -2 -28 -9 -32 -16 -6 -8 -8 -7 -8 2 0 10 -8 9 -30
-5 -34 -20 -37 -28 -13 -37 10 -4 22 -1 28 7 9 12 12 12 23 1 19 -21 127 5
120 28 -5 15 -52 25 -88 20z"/>
<path d="M4916 6631 c-16 -6 -17 -9 -6 -16 8 -5 15 -4 17 2 3 8 13 7 31 -3 35
-18 42 -18 42 2 0 8 -4 12 -10 9 -5 -3 -10 -1 -10 4 0 12 -35 13 -64 2z"/>
<path d="M5387 6622 c-26 -29 -20 -33 18 -15 19 9 32 20 29 25 -9 14 -30 9
-47 -10z"/>
<path d="M3407 6623 c-12 -11 -8 -23 7 -23 8 0 16 7 20 15 5 15 -14 21 -27 8z"/>
<path d="M3635 6620 c3 -5 10 -10 16 -10 5 0 9 5 9 10 0 6 -7 10 -16 10 -8 0
-12 -4 -9 -10z"/>
<path d="M4600 6615 c0 -8 5 -15 10 -15 6 0 10 7 10 15 0 8 -4 15 -10 15 -5 0
-10 -7 -10 -15z"/>
<path d="M5080 6620 c0 -5 10 -10 23 -10 18 0 19 2 7 10 -19 13 -30 13 -30 0z"/>
<path d="M3216 6604 c-9 -8 -16 -24 -16 -35 0 -11 -10 -23 -22 -28 l-22 -8 22
-12 c24 -13 103 -11 102 2 0 4 6 23 14 42 14 32 14 36 -4 45 -27 15 -56 12
-74 -6z"/>
<path d="M4243 6613 c-21 -8 -15 -23 10 -23 16 0 18 -3 8 -9 -10 -6 -10 -10
-1 -16 17 -10 51 1 85 29 24 20 26 25 12 26 -10 0 -28 -5 -39 -11 -15 -8 -19
-8 -14 0 4 6 3 11 -3 11 -5 0 -12 -6 -14 -12 -4 -10 -6 -10 -6 0 -1 12 -16 14
-38 5z"/>
<path d="M4750 6589 c-30 -4 -86 -11 -123 -14 -62 -6 -73 -11 -108 -45 -25
-24 -60 -45 -92 -55 -58 -19 -119 -76 -116 -110 1 -11 -2 -28 -6 -38 -15 -35
9 -40 81 -16 54 18 79 34 119 75 64 66 85 79 165 99 36 9 71 22 79 28 8 7 37
23 65 37 91 45 68 59 -64 39z"/>
<path d="M8382 6587 c-11 -13 -11 -20 0 -39 l13 -23 3 23 c2 12 2 30 0 39 -3
15 -4 15 -16 0z"/>
<path d="M2785 6580 c3 -5 11 -10 16 -10 6 0 7 5 4 10 -3 6 -11 10 -16 10 -6
0 -7 -4 -4 -10z"/>
<path d="M3696 6583 c-11 -11 -6 -23 9 -23 8 0 15 4 15 9 0 13 -16 22 -24 14z"/>
<path d="M3720 6545 c0 -8 5 -15 10 -15 6 0 10 7 10 15 0 8 -4 15 -10 15 -5 0
-10 -7 -10 -15z"/>
<path d="M3110 6540 c0 -5 7 -10 16 -10 8 0 12 5 9 10 -3 6 -10 10 -16 10 -5
0 -9 -4 -9 -10z"/>
<path d="M8601 6511 c-20 -13 44 -45 65 -33 12 7 13 10 2 19 -21 17 -52 23
-67 14z"/>
<path d="M8244 6465 c-9 -21 6 -37 28 -32 11 3 21 0 25 -8 2 -8 13 -17 24 -20
10 -4 19 -12 19 -19 0 -17 43 -56 62 -56 9 0 18 9 21 21 5 17 2 20 -14 16 -23
-6 -65 23 -48 33 5 4 7 14 4 22 -7 19 -59 43 -73 34 -6 -3 -12 1 -16 9 -7 19
-25 19 -32 0z"/>
<path d="M3630 6435 c-19 -23 -4 -45 29 -45 43 0 80 -16 123 -55 21 -19 48
-35 61 -35 25 0 67 26 67 41 0 15 -52 69 -66 69 -6 0 -19 9 -29 20 -15 17 -31
20 -95 20 -56 0 -81 -4 -90 -15z"/>
<path d="M7054 6349 c-3 -6 0 -15 7 -20 29 -18 39 -7 15 17 -11 10 -17 11 -22
3z"/>
<path d="M4276 6321 c-4 -7 -5 -15 -2 -18 9 -9 19 4 14 18 -4 11 -6 11 -12 0z"/>
<path d="M1655 6290 c-3 -5 1 -10 9 -10 9 0 16 5 16 10 0 6 -4 10 -9 10 -6 0
-13 -4 -16 -10z"/>
<path d="M4047 6289 c-9 -6 -17 -14 -17 -19 0 -16 37 -11 43 5 8 19 -4 26 -26
14z"/>
<path d="M4233 6264 c-42 -25 -49 -34 -37 -47 8 -8 76 20 86 36 10 15 10 37 1
37 -5 0 -27 -12 -50 -26z"/>
<path d="M7075 6280 c3 -5 1 -10 -4 -10 -6 0 -11 -4 -11 -10 0 -16 27 -11 34
6 9 22 8 24 -10 24 -8 0 -12 -4 -9 -10z"/>
<path d="M8605 6260 c3 -5 15 -10 25 -10 10 0 22 5 25 10 4 6 -7 10 -25 10
-18 0 -29 -4 -25 -10z"/>
<path d="M7088 6242 c-16 -9 -28 -26 -28 -37 0 -11 -7 -42 -15 -70 -9 -27 -13
-55 -11 -61 2 -6 -3 -11 -12 -10 -9 1 -21 -14 -30 -37 -14 -34 -13 -39 2 -50
16 -12 16 -14 2 -26 -10 -8 -16 -29 -16 -52 0 -21 -4 -49 -9 -62 -6 -16 -6
-64 0 -128 8 -82 7 -110 -4 -138 -8 -20 -20 -67 -27 -106 -8 -40 -25 -87 -41
-113 -15 -24 -31 -57 -34 -74 -4 -16 -9 -27 -12 -24 -3 3 -22 -3 -42 -13 -57
-29 -82 -35 -75 -18 3 9 -9 19 -41 31 -32 13 -53 29 -70 56 -25 39 -32 44 -98
55 -23 4 -54 20 -78 42 -42 38 -115 76 -168 88 -18 4 -49 24 -69 45 -20 20
-57 50 -82 66 -57 36 -62 45 -44 65 7 8 14 21 14 27 0 7 9 17 20 24 24 15 48
90 31 96 -20 7 -11 40 15 61 21 17 30 19 41 9 18 -14 36 2 31 28 -2 10 4 27
12 36 8 10 23 27 33 39 14 16 16 23 7 34 -7 8 -9 19 -5 25 3 5 2 10 -4 10 -5
0 -13 -5 -17 -11 -11 -18 -26 18 -19 42 5 16 3 20 -6 17 -8 -3 -13 -13 -13
-22 1 -12 -4 -16 -18 -14 -15 2 -22 -3 -24 -19 -2 -13 0 -23 6 -23 5 0 7 -7 4
-15 -7 -18 -36 -20 -33 -2 4 30 -1 38 -22 32 -18 -6 -19 -5 -10 13 18 34 13
44 -14 26 -14 -9 -23 -19 -21 -23 3 -4 -5 -8 -17 -8 -12 -1 -34 -5 -50 -9 -21
-5 -26 -3 -22 8 5 12 -5 15 -54 14 -40 -1 -62 3 -66 12 -2 6 -11 12 -20 12 -8
0 -15 5 -15 11 0 7 -12 9 -34 5 -20 -4 -37 -2 -41 4 -3 5 -13 10 -21 10 -8 0
-26 12 -40 28 -17 18 -27 23 -31 15 -9 -23 -22 -13 -25 20 -2 17 -7 31 -13 29
-5 -2 -8 -11 -7 -20 3 -13 1 -14 -11 -4 -17 15 -65 13 -90 -4 -16 -10 -16 -13
10 -30 15 -11 44 -19 63 -19 23 0 34 -4 33 -12 -2 -7 1 -13 6 -13 4 0 8 -13 7
-28 -1 -25 -4 -28 -26 -24 -22 5 -24 4 -11 -12 8 -9 11 -19 7 -23 -3 -3 -6 -2
-6 4 0 5 -32 9 -77 9 -43 -1 -90 3 -105 8 -20 6 -28 5 -28 -3 0 -20 -24 -38
-43 -33 -16 4 -18 1 -12 -18 5 -16 4 -20 -5 -15 -7 4 -24 -5 -42 -25 -22 -24
-28 -40 -26 -64 2 -22 -1 -31 -12 -31 -26 -1 -40 -15 -40 -40 0 -13 -13 -40
-30 -58 -16 -19 -30 -40 -30 -45 0 -13 35 -34 43 -26 3 4 5 -3 4 -15 -1 -16
-6 -20 -21 -15 -20 7 -20 6 -2 -22 l19 -28 -29 23 c-16 12 -30 18 -32 12 -2
-6 -16 -4 -37 5 -47 19 -99 19 -91 -1 3 -8 0 -14 -7 -12 -6 1 -13 -9 -15 -23
-5 -31 -22 -51 -22 -25 0 10 5 32 11 49 11 30 9 33 -42 84 -82 82 -169 117
-169 69 0 -32 -10 -40 -27 -19 -12 16 -14 16 -27 0 -7 -10 -18 -18 -25 -18 -6
0 -17 -15 -25 -32 -8 -18 -15 -27 -15 -20 -1 10 -6 10 -22 2 -19 -10 -20 -10
-10 9 14 26 14 31 -4 31 -8 0 -15 -9 -15 -19 0 -24 -39 -39 -51 -20 -8 12 -11
12 -18 -1 -7 -9 -6 -17 1 -21 6 -4 1 -13 -15 -24 -30 -19 -32 -52 -5 -76 16
-14 15 -15 -17 -15 -19 1 -37 7 -40 14 -5 14 -35 17 -35 2 0 -5 8 -14 18 -19
16 -10 16 -10 0 -11 -26 0 -23 -45 5 -65 l22 -15 -22 -6 c-25 -7 -31 -29 -10
-38 6 -4 1 -3 -13 0 -14 4 -37 7 -52 7 -15 0 -25 4 -22 8 3 5 -4 9 -15 9 -23
0 -36 -16 -21 -25 5 -3 7 -18 4 -31 -5 -18 0 -34 15 -54 11 -16 21 -33 21 -37
0 -4 -7 1 -15 11 -17 23 -32 13 -37 -23 -3 -24 -3 -24 -17 5 -8 16 -25 43 -38
61 -13 17 -20 39 -17 47 3 9 2 16 -3 16 -13 0 -43 -34 -43 -48 0 -7 -5 -12
-11 -12 -7 0 -27 -16 -45 -35 -38 -39 -45 -85 -19 -135 14 -28 14 -29 -14 -49
-16 -12 -33 -21 -38 -21 -6 0 -15 -12 -22 -27 -29 -65 -76 -125 -115 -148 -51
-30 -153 -55 -227 -55 -45 0 -60 -4 -78 -24 -15 -16 -37 -25 -69 -28 -28 -3
-62 -15 -85 -31 -34 -23 -44 -25 -105 -20 -79 7 -113 -7 -203 -81 -31 -25 -75
-53 -100 -61 -54 -19 -85 -48 -99 -91 -6 -18 -18 -35 -27 -38 -14 -6 -15 1
-10 49 6 55 3 62 -20 47 -20 -13 -61 -118 -52 -133 17 -26 10 -99 -12 -128
-11 -15 -25 -47 -30 -70 -8 -34 -6 -48 11 -81 11 -21 20 -44 20 -50 0 -6 21
-40 46 -76 40 -56 45 -69 40 -99 -8 -41 -21 -45 -30 -9 -4 16 -12 24 -20 21
-10 -4 -12 1 -9 14 6 22 -22 59 -44 59 -29 0 -1 -91 32 -103 17 -7 20 -33 5
-42 -6 -3 -13 2 -17 12 -11 30 -51 74 -55 61 -3 -7 -10 9 -16 35 -8 30 -18 47
-27 47 -8 0 -15 -5 -15 -12 0 -20 59 -117 105 -174 59 -72 75 -105 75 -153 0
-30 8 -49 35 -81 19 -23 35 -49 35 -58 0 -8 11 -30 25 -48 20 -26 25 -44 25
-92 0 -77 19 -137 71 -225 34 -57 44 -83 46 -127 2 -30 -2 -65 -8 -77 -9 -16
-9 -30 0 -53 19 -56 -21 -107 -73 -94 -28 7 -34 -11 -26 -71 5 -37 8 -40 43
-46 23 -4 51 -18 70 -37 43 -41 128 -73 186 -71 25 1 73 -1 106 -5 38 -5 55
-4 46 2 -15 11 -8 16 34 26 16 4 32 11 35 14 17 23 75 53 91 49 13 -4 35 8 65
34 25 21 51 39 57 40 7 0 30 2 52 4 22 2 91 7 153 11 92 5 112 4 110 -7 -2 -9
4 -13 17 -11 94 15 126 14 145 -3 11 -10 20 -13 20 -7 0 6 10 14 23 17 39 13
85 54 92 84 8 37 31 57 75 66 19 4 49 15 65 25 17 10 41 21 55 25 14 4 37 16
52 26 21 15 45 19 120 19 114 0 202 18 299 60 67 30 87 33 219 40 80 5 152 9
160 11 35 5 61 -3 111 -37 45 -30 58 -34 89 -29 27 4 48 1 76 -13 44 -22 109
-40 84 -22 -13 9 -13 10 0 10 24 0 45 -18 45 -37 0 -14 7 -17 28 -15 19 2 27
-2 27 -12 0 -10 -6 -13 -15 -10 -20 8 -19 -5 4 -43 15 -23 28 -32 52 -35 26
-2 34 -9 40 -32 5 -16 21 -43 37 -60 33 -35 59 -98 38 -90 -8 3 -16 -1 -19
-10 -6 -16 51 -59 96 -70 20 -5 29 -2 34 10 3 9 0 20 -8 25 -27 16 101 129
173 153 9 3 27 24 38 47 12 23 31 44 42 47 15 4 19 11 16 33 -6 37 -3 36 16
-3 15 -29 15 -33 1 -41 -10 -5 -13 -16 -9 -32 5 -19 -1 -34 -25 -60 -17 -20
-31 -41 -32 -48 0 -7 -1 -34 -2 -62 -2 -48 -3 -50 -32 -53 -31 -3 -55 -25 -55
-50 0 -11 7 -12 28 -7 15 4 45 8 66 9 39 1 40 2 56 57 29 97 34 100 64 41 34
-68 33 -96 -5 -131 -22 -20 -27 -31 -19 -36 16 -10 121 15 139 33 19 19 35 10
42 -25 4 -23 3 -30 -6 -27 -7 3 -12 12 -11 21 0 9 -5 18 -12 20 -24 9 -6 -35
26 -62 60 -51 79 -108 56 -168 -3 -10 17 -39 59 -82 51 -52 72 -67 103 -72 21
-3 50 -14 64 -23 36 -24 58 -31 65 -19 11 17 107 -2 186 -37 42 -19 83 -34 91
-34 9 0 35 16 59 35 24 19 61 40 82 45 38 11 51 30 20 30 -13 1 -9 6 11 16 19
11 31 13 38 6 15 -15 2 -43 -22 -49 -16 -4 -18 -8 -9 -19 15 -18 28 -18 50 2
17 15 20 14 42 -10 13 -14 32 -26 41 -26 9 0 19 -7 22 -15 4 -8 14 -15 24 -15
9 0 25 -9 35 -20 23 -26 38 -25 50 2 9 20 122 106 190 145 20 11 66 19 136 24
78 5 117 13 149 29 l42 22 -6 49 c-4 31 -2 57 6 72 6 12 15 45 19 73 8 58 69
164 94 164 8 0 15 5 15 10 0 6 -5 10 -12 10 -9 0 -9 3 0 12 7 7 12 22 12 34 0
12 14 38 30 59 17 21 30 44 30 51 0 17 32 85 48 102 6 7 12 18 12 23 0 5 12
15 26 21 43 20 104 82 104 105 0 12 16 51 35 86 27 49 35 75 35 114 0 27 11
83 25 123 14 40 25 84 25 98 0 13 9 37 21 53 16 23 19 38 15 75 -3 26 -10 52
-15 58 -15 19 -25 59 -12 52 7 -5 11 4 11 25 0 26 -2 30 -15 19 -11 -9 -19 -7
-37 9 -19 18 -21 25 -10 41 8 13 10 52 7 122 -3 86 -1 109 16 149 17 38 18 51
9 68 -13 26 -30 19 -30 -13 0 -13 -7 -29 -15 -36 -19 -16 -65 -5 -65 15 0 9
-21 37 -47 64 -27 26 -56 60 -66 75 -13 18 -24 25 -37 21 -11 -3 -20 0 -24 10
-3 8 -13 15 -23 15 -14 0 -15 2 -4 9 21 13 5 44 -19 38 -28 -7 -43 17 -42 70
0 26 -4 57 -9 70 -9 25 -33 53 -43 53 -12 0 -6 -28 7 -33 9 -4 8 -6 -2 -6 -7
-1 -29 13 -48 29 -35 31 -53 38 -53 19 0 -5 4 -8 9 -5 5 3 8 -5 7 -18 0 -13
-5 -22 -11 -19 -26 15 -45 38 -45 55 0 45 -42 134 -82 175 -30 31 -37 43 -25
43 9 0 17 5 17 10 0 18 -73 85 -78 72 -3 -9 -7 -8 -17 2 -8 7 -32 16 -54 20
-34 5 -41 11 -51 41 -9 28 -17 35 -38 35 -77 0 -159 51 -147 91 5 14 -1 25
-19 40 -24 19 -26 25 -20 70 9 64 -14 167 -38 175 -29 9 -58 54 -52 79 3 12
-1 46 -10 75 -9 29 -14 56 -11 60 2 4 -4 15 -15 25 -11 10 -24 33 -31 52 -6
21 -20 38 -35 43 -14 6 -24 18 -24 29 0 30 -17 34 -49 12 -47 -34 -67 -28 -84
27 -8 26 -18 77 -22 115 -4 37 -11 67 -16 67 -6 0 -8 8 -5 18 4 10 -4 28 -18
44 -16 16 -23 33 -19 46 3 12 -2 25 -15 33 -11 8 -22 32 -26 57 -9 56 -35 122
-50 122 -6 0 -23 -8 -38 -18z m615 -4139 c-7 -2 -19 -2 -25 0 -7 3 -2 5 12 5
14 0 19 -2 13 -5z"/>
<path d="M6246 6188 c-9 -12 -16 -28 -16 -36 0 -7 -4 -11 -9 -8 -11 7 -48 -21
-38 -30 10 -11 54 25 79 64 22 36 8 45 -16 10z"/>
<path d="M5323 6170 c4 -17 3 -19 -8 -10 -10 8 -16 3 -26 -22 -7 -18 -15 -37
-17 -41 -2 -5 15 -7 39 -6 24 1 55 -3 68 -10 21 -12 28 -10 65 16 45 32 60 75
30 87 -10 4 -21 1 -26 -6 -4 -7 -8 -10 -8 -7 0 4 -15 3 -32 -1 -22 -4 -43 -2
-62 8 -28 13 -29 13 -23 -8z"/>
<path d="M8680 6183 c1 -19 52 -64 80 -69 43 -9 38 12 -7 34 -21 9 -42 23 -46
30 -9 13 -27 17 -27 5z"/>
<path d="M8825 6160 c-3 -5 3 -10 15 -10 12 0 18 5 15 10 -3 6 -10 10 -15 10
-5 0 -12 -4 -15 -10z"/>
<path d="M5765 6140 c3 -5 10 -10 16 -10 5 0 9 5 9 10 0 6 -7 10 -16 10 -8 0
-12 -4 -9 -10z"/>
<path d="M350 6030 c0 -5 5 -10 10 -10 6 0 10 5 10 10 0 6 -4 10 -10 10 -5 0
-10 -4 -10 -10z"/>
<path d="M6160 5861 c0 -6 5 -13 10 -16 6 -3 10 1 10 9 0 9 -4 16 -10 16 -5 0
-10 -4 -10 -9z"/>
<path d="M6245 5820 c-3 -5 1 -10 10 -10 9 0 13 5 10 10 -3 6 -8 10 -10 10 -2
0 -7 -4 -10 -10z"/>
<path d="M6172 5808 c6 -18 28 -21 28 -4 0 9 -7 16 -16 16 -9 0 -14 -5 -12
-12z"/>
<path d="M6253 5802 c-25 -3 -34 -10 -42 -34 -6 -17 -11 -32 -11 -33 0 -6 73
-13 86 -8 19 7 18 23 -1 23 -18 0 -18 5 -4 32 13 24 12 24 -28 20z"/>
<path d="M4680 5780 c0 -13 18 -22 24 -11 3 5 -1 11 -9 15 -8 3 -15 1 -15 -4z"/>
<path d="M6238 5530 c12 -11 27 -20 33 -20 7 0 3 9 -9 20 -12 11 -27 20 -33
20 -7 0 -3 -9 9 -20z"/>
<path d="M6280 5547 c0 -15 21 -47 31 -47 6 0 9 7 7 16 -2 8 -7 14 -12 14 -5
-1 -13 4 -17 12 -5 7 -9 9 -9 5z"/>
<path d="M6634 5396 l-29 -25 33 -1 c17 0 32 5 32 10 0 6 9 10 21 10 12 0 19
5 17 13 -8 22 -45 19 -74 -7z"/>
<path d="M4290 5400 c0 -5 5 -10 10 -10 6 0 10 5 10 10 0 6 -4 10 -10 10 -5 0
-10 -4 -10 -10z"/>
<path d="M6610 5350 c0 -5 5 -10 10 -10 6 0 10 5 10 10 0 6 -4 10 -10 10 -5 0
-10 -4 -10 -10z"/>
<path d="M6666 5320 c-15 -5 -16 -9 -7 -14 7 -5 18 -3 24 3 14 14 6 20 -17 11z"/>
<path d="M7650 5142 c0 -10 21 -32 32 -32 16 0 8 19 -12 30 -11 6 -20 7 -20 2z"/>
<path d="M7750 5009 c0 -5 5 -7 10 -4 6 3 10 8 10 11 0 2 -4 4 -10 4 -5 0 -10
-5 -10 -11z"/>
<path d="M8064 4869 c-3 -6 -1 -16 5 -22 8 -8 11 -5 11 11 0 24 -5 28 -16 11z"/>
<path d="M3097 4776 c-6 -16 2 -28 14 -20 12 7 11 34 0 34 -5 0 -11 -6 -14
-14z"/>
<path d="M8360 4410 c0 -5 5 -10 10 -10 6 0 10 5 10 10 0 6 -4 10 -10 10 -5 0
-10 -4 -10 -10z"/>
<path d="M2760 4160 c0 -11 5 -20 10 -20 6 0 10 9 10 20 0 11 -4 20 -10 20 -5
0 -10 -9 -10 -20z"/>
<path d="M2756 4115 c-3 -8 -1 -15 4 -15 6 0 10 7 10 15 0 8 -2 15 -4 15 -2 0
-6 -7 -10 -15z"/>
<path d="M8726 3843 c-9 -10 -7 -43 3 -43 11 0 21 39 11 45 -4 2 -10 2 -14 -2z"/>
<path d="M5920 2850 c0 -5 4 -10 9 -10 6 0 13 5 16 10 3 6 -1 10 -9 10 -9 0
-16 -4 -16 -10z"/>
<path d="M4110 2790 c0 -5 5 -10 10 -10 6 0 10 5 10 10 0 6 -4 10 -10 10 -5 0
-10 -4 -10 -10z"/>
<path d="M11340 2692 c0 -6 -9 -8 -20 -5 -27 7 -25 0 10 -35 20 -20 30 -41 30
-60 0 -33 32 -68 52 -57 10 6 10 5 1 -5 -9 -10 -1 -25 40 -72 29 -32 57 -56
64 -53 48 19 48 19 36 3 -7 -8 -10 -18 -6 -22 4 -4 0 -4 -10 0 -9 3 -17 4 -17
1 0 -6 33 -66 59 -107 24 -39 40 -89 29 -96 -5 -3 -4 -12 4 -21 10 -12 9 -17
-5 -24 -10 -6 -17 -22 -17 -37 0 -40 -25 -70 -70 -83 -68 -21 -89 -70 -37 -84
12 -3 45 -17 72 -30 28 -13 58 -26 67 -29 27 -8 51 -52 44 -82 -4 -14 -25 -45
-48 -70 -45 -48 -43 -57 12 -70 14 -4 31 -13 38 -22 11 -14 16 -14 56 5 24 12
61 43 82 70 21 26 58 69 81 95 24 26 43 54 43 61 0 8 7 20 15 27 8 7 15 16 15
21 0 5 -7 9 -15 9 -20 0 -19 23 3 50 23 29 99 40 108 16 11 -28 34 1 27 34 -4
24 -1 31 26 44 23 13 31 23 31 44 0 15 9 45 19 65 18 36 18 38 1 47 -37 20
-88 12 -123 -20 -40 -34 -71 -38 -133 -14 -29 11 -41 21 -37 30 3 8 0 14 -6
14 -6 0 -11 -4 -11 -10 0 -19 -28 -10 -44 14 -16 26 -38 98 -37 129 0 9 -5 17
-10 17 -6 0 -7 -4 -4 -10 3 -5 0 -10 -8 -10 -8 0 -17 7 -21 15 -3 8 -12 15
-21 15 -17 0 -20 -11 -6 -25 12 -14 22 -75 12 -75 -5 0 -11 7 -15 15 -3 8 -13
15 -22 15 -13 0 -14 3 -4 15 10 12 10 15 -4 15 -9 0 -16 -5 -16 -12 0 -6 -9
-3 -20 7 -25 23 -27 57 -3 48 18 -7 17 -5 -27 46 -41 47 -41 48 -25 65 15 14
14 18 -9 41 -14 14 -32 25 -41 25 -9 0 -13 5 -10 10 8 13 -62 43 -81 36 -8 -3
-14 -1 -14 5 0 6 -7 8 -16 5 -18 -7 -54 32 -47 50 2 7 0 15 -6 19 -6 3 -11 2
-11 -3z m210 -256 c0 -11 -19 -15 -25 -6 -3 5 1 10 9 10 9 0 16 -2 16 -4z"/>
<path d="M6170 2660 c0 -5 5 -10 11 -10 5 0 7 5 4 10 -3 6 -8 10 -11 10 -2 0
-4 -4 -4 -10z"/>
<path d="M6293 2563 c-66 -15 -82 -35 -40 -49 32 -10 130 -13 142 -3 6 4 24 9
40 11 45 5 39 32 -7 36 -21 2 -38 7 -38 13 0 12 -22 10 -97 -8z"/>
<path d="M11690 2436 c0 -14 28 -42 35 -34 2 2 2 14 -2 26 -6 24 -33 31 -33 8z"/>
<path d="M7510 2140 c20 -13 33 -13 25 0 -3 6 -14 10 -23 10 -15 0 -15 -2 -2
-10z"/>
<path d="M7322 1978 c-15 -15 -16 -65 -1 -74 6 -3 20 2 30 13 16 16 18 24 10
46 -12 30 -21 33 -39 15z"/>
<path d="M7901 1956 c-7 -9 -2 -21 18 -44 16 -17 24 -33 19 -34 -7 -3 -7 -11
1 -26 12 -23 31 -30 31 -12 0 6 7 10 15 10 20 0 19 17 -2 29 -10 6 -13 11 -6
11 7 0 10 7 6 18 -15 43 -63 71 -82 48z"/>
<path d="M7453 1863 c-7 -2 -13 -12 -13 -21 1 -16 2 -16 14 0 7 10 16 15 19
11 4 -3 7 -1 7 5 0 13 -7 14 -27 5z"/>
<path d="M7470 1830 c0 -5 5 -10 11 -10 5 0 7 5 4 10 -3 6 -8 10 -11 10 -2 0
-4 -4 -4 -10z"/>
<path d="M7437 1814 c-4 -4 -7 -21 -7 -38 0 -33 23 -76 73 -139 22 -28 27 -41
18 -46 -19 -12 -4 -53 41 -107 53 -65 72 -77 142 -91 62 -13 86 -6 86 23 0 17
30 33 49 26 10 -3 12 0 8 12 -4 9 -2 16 3 16 6 0 10 7 10 15 0 9 9 15 22 15
21 0 21 0 3 -14 -16 -12 -17 -16 -6 -30 30 -36 74 -9 52 33 -9 16 -8 21 9 26
23 7 27 25 5 25 -18 0 -18 4 0 50 13 34 14 34 14 8 1 -16 7 -28 14 -28 10 0
12 25 11 106 -1 94 -4 109 -23 127 -18 18 -24 20 -41 9 -11 -6 -29 -12 -40
-12 -11 0 -20 -4 -20 -10 0 -5 -23 -10 -51 -10 -45 0 -50 -2 -44 -17 5 -14 4
-15 -6 -6 -8 8 -28 10 -54 6 -31 -4 -65 2 -121 20 -97 31 -138 40 -147 31z
m123 -244 c0 -5 -2 -10 -4 -10 -3 0 -8 5 -11 10 -3 6 -1 10 4 10 6 0 11 -4 11
-10z"/>
<path d="M11287 1786 c-55 -20 -77 -43 -77 -83 0 -37 -45 -93 -74 -93 -16 0
-46 -48 -46 -73 0 -23 -67 -93 -102 -107 -18 -8 -59 -33 -91 -57 -33 -24 -64
-43 -71 -43 -6 0 -32 -11 -58 -25 -26 -14 -58 -25 -71 -25 -14 0 -63 -32 -126
-82 -88 -70 -101 -85 -96 -105 4 -16 1 -23 -9 -23 -9 0 -13 6 -10 14 3 8 1 17
-5 21 -6 3 -11 1 -11 -5 0 -6 -7 -18 -15 -26 -19 -19 -19 -34 -2 -34 8 0 14
-7 14 -15 0 -11 -4 -12 -11 -5 -17 17 -43 11 -49 -10 -4 -14 5 -30 26 -51 30
-30 33 -31 93 -25 49 5 64 3 74 -9 9 -10 22 -14 39 -10 14 3 33 1 41 -5 11 -7
11 -10 2 -10 -7 0 -10 -5 -6 -11 4 -7 22 -9 45 -6 22 3 42 1 45 -5 9 -14 90 0
135 23 20 10 49 32 65 49 16 16 35 30 42 30 7 0 23 5 34 11 15 8 17 13 8 19
-15 9 -3 35 41 91 17 21 29 49 29 66 0 44 24 68 97 98 38 15 73 31 79 36 6 5
23 4 41 -3 32 -12 63 -6 63 12 0 6 -13 16 -30 21 -40 15 -40 45 2 67 17 9 40
26 50 37 142 156 164 185 139 185 -22 0 -18 41 6 60 14 11 22 24 18 31 -7 10
-26 9 -85 -5 -21 -5 -22 -5 -5 3 11 5 16 10 11 10 -5 1 -1 10 9 21 16 18 16
20 2 20 -9 0 -21 -9 -27 -20 -9 -17 -77 -60 -95 -60 -3 0 -5 15 -5 34 0 28 -4
35 -22 38 -29 4 -36 28 -8 28 12 0 18 5 15 10 -8 13 -11 12 -58 -4z"/>
<path d="M7805 1419 c-4 -6 -4 -13 -1 -16 8 -8 36 5 36 17 0 13 -27 13 -35 -1z"/>
<path d="M11105 851 c4 -13 -2 -25 -20 -39 -21 -17 -23 -21 -8 -26 9 -4 21 -2
27 4 5 5 20 10 32 10 35 0 54 11 54 29 0 26 -21 41 -58 41 -28 0 -32 -3 -27
-19z"/>
<path d="M12740 429 c0 -5 5 -7 10 -4 6 3 10 8 10 11 0 2 -4 4 -10 4 -5 0 -10
-5 -10 -11z"/>
<path d="M10857 292 c-19 -21 -22 -38 -7 -47 14 -8 52 14 44 26 -3 5 0 16 6
24 19 23 -23 20 -43 -3z"/>
<path d="M11305 10 c3 -5 13 -10 21 -10 8 0 14 5 14 10 0 6 -9 10 -21 10 -11
0 -17 -4 -14 -10z"/>
</g>
</svg>
