<?xml version="1.0" encoding="utf-8"?>
<!-- Svg Vector Icons : http://www.onlinewebfonts.com/icon -->
<!DOCTYPE svg PUBLIC "-//W3C//DTD SVG 1.1//EN" "http://www.w3.org/Graphics/SVG/1.1/DTD/svg11.dtd">
<svg version="1.1" xmlns="http://www.w3.org/2000/svg" xmlns:xlink="http://www.w3.org/1999/xlink" x="0px" y="0px" viewBox="0 0 1000 1000" enable-background="new 0 0 1000 1000" xml:space="preserve">
<metadata> Svg Vector Icons : http://www.onlinewebfonts.com/icon </metadata>
<g><g transform="translate(0.000000,512.000000) scale(0.100000,-0.100000)"><path d="M2998.9,4907.1c7.7-63.2,21.1-128.2,28.7-145.5c21.1-40.2-42.1-80.4-107.2-67c-32.5,5.7-47.8-1.9-53.6-26.8c-5.8-23-21.1-30.6-49.8-23c-51.7,13.4-116.8-42.1-116.8-101.4c0-61.2-19.1-103.3-49.8-103.3c-38.3,0-124.4-124.4-111-160.8c17.2-45.9-21-38.3-57.4,13.4c-28.7,38.3-30.6,38.3-13.4,1.9c15.3-32.5,11.5-47.9-26.8-80.4c-55.5-47.8-59.3-74.6-17.2-120.6c21.1-23,30.6-78.5,34.4-193.3c1.9-90,11.5-172.3,19.1-185.6c9.6-13.4-3.8-61.3-28.7-109.1c-32.5-63.2-61.2-90-97.6-97.6c-36.4-7.7-53.6-23-53.6-45.9c0-21.1-13.4-36.4-28.7-36.4c-17.2,0-28.7-17.2-28.7-40.2c0-28.7-21.1-47.8-76.6-68.9c-63.2-24.9-74.6-38.3-65.1-72.7c5.7-24.9-1.9-53.6-19.1-72.7c-17.2-15.3-30.6-44-30.6-61.3c0-15.3-13.4-34.4-28.7-40.2c-42.1-17.2-26.8-225.8,19.1-233.5c17.2-3.8,42.1,1.9,53.6,13.4c32.5,32.5,51.7,24.9,51.7-19.1c0-26.8-44-82.3-118.7-151.2l-116.7-109.1l40.2-67c51.7-82.3,51.7-105.3,9.6-114.8c-24.9-5.7-11.5-19.1,45.9-49.7c53.6-26.8,107.2-80.4,155-153.1c134-199.1,210.5-336.8,235.4-424.9c13.4-47.9,38.3-103.3,57.4-124.4c17.2-21.1,49.8-74.6,72.7-118.7c21.1-44,47.8-84.2,59.3-91.9c9.6-5.7,19.1-42.1,19.1-78.5c0-105.3,149.3-241.2,415.3-377c130.1-67,218.2-124.4,225.8-145.5c5.7-21,36.4-45.9,67-57.4c34.4-11.5,67-40.2,80.4-72.7c26.8-67,26.8-591.4,0-623.9c-11.5-13.4-19.1-95.7-21.1-185.6c-1.9-201-32.5-426.8-67-495.7c-49.8-95.7-68.9-193.3-45.9-243.1c17.2-38.3,15.3-59.3-9.6-103.3c-34.5-57.4-40.2-170.3-15.3-298.6c9.6-53.6,7.7-88-9.6-111c-11.5-17.2-19.1-49.8-13.4-68.9c5.7-21.1-3.8-67-19.1-99.5c-51.7-112.9-166.5-421.1-166.5-449.8c0-15.3-17.2-32.5-40.2-38.3c-26.8-7.7-34.4-19.1-24.9-42.1c7.7-17.2,21.1-97.6,30.6-178c15.3-141.6,15.3-153.1-32.5-220.1c-55.5-82.3-59.3-120.6-19.1-197.1c30.6-59.3,63.2-72.7,99.5-36.4c15.3,15.3,28.7,3.8,49.8-38.3c24.9-49.7,24.9-61.2,1.9-80.4c-15.3-13.4-21.1-40.2-15.3-67c7.7-24.9,3.8-57.4-7.7-70.8c-9.6-11.5-23-53.6-26.8-90c-7.7-49.8,0-72.7,30.6-97.6l38.3-32.5l-61.2-57.4c-36.4-34.5-53.6-63.2-42.1-70.8c11.5-7.7,9.6-23-9.6-40.2c-15.3-17.2-28.7-47.8-28.7-70.8c-1.9-49.8-45.9-114.8-65.1-93.8c-7.7,7.7-23,15.3-32.5,15.3c-9.6,1.9-23,3.8-30.6,5.8c-5.7,0,3.8,19.1,21,38.3c57.4,63.2-3.8,67-72.7,5.7l-63.2-55.5l51.7-32.5c30.6-17.2,67-30.6,82.3-30.6c49.8,0,57.4-40.2,15.3-78.5c-57.4-53.6-49.8-70.8,30.6-78.5c38.3-3.8,72.7-17.2,78.5-32.5c5.7-19.1-5.7-23-45.9-13.4l-55.5,11.5l-5.7-114.8c-1.9-74.6,1.9-112.9,15.3-105.3c26.8,15.3,24.9-15.3-1.9-42.1c-13.4-13.4-15.3-32.5-5.7-47.8c9.6-13.4,13.4-44,11.5-67c-5.7-30.6,5.7-42.1,38.3-47.8l44-5.7l-45.9-45.9c-40.2-40.2-42.1-47.8-13.4-63.2c21-11.5,28.7-30.6,21-55.5c-9.6-28.7-1.9-42.1,24.9-49.8c23-5.7,34.5-21,28.7-34.4c-5.7-19.1,5.7-24.9,45.9-23c42.1,3.8,55.5-5.7,59.3-38.3c3.8-28.7,19.1-44,42.1-44c67,0,59.3-36.4-9.6-49.8c-38.3-5.8-67-23-67-38.3c0-32.5-3.8-32.5,95.7,1.9c44,15.3,88,28.7,97.6,28.7c28.7,0,19.1-40.2-21.1-90c-45.9-59.3-47.8-74.6-9.6-90c55.5-21,86.1,9.6,86.1,84.2c0,84.2,38.3,134,103.3,134c24.9,0,55.5,13.4,68.9,28.7c17.2,21,42.1,26.8,88,17.2c36.4-5.8,65.1-7.7,65.1-1.9c0,5.7-21.1,51.7-47.9,101.4c-78.5,147.4-61.2,225.8,67,290.9c45.9,21.1,68.9,47.9,72.7,80.4c11.5,97.6,47.9,153.1,139.7,212.4c99.5,63.2,132.1,105.3,132.1,166.5c0,24.9-17.2,40.2-55.5,47.9c-28.7,5.7-80.4,34.5-114.8,61.3c-120.6,101.4-45.9,279.4,128.2,308.1c59.3,9.6,74.6,19.1,67,45.9c-5.7,19.1,0,40.2,11.5,45.9c11.5,7.6,21.1,42.1,21.1,78.5c0,45.9,13.4,74.6,47.8,101.4c55.5,44,61.3,61.2,19.1,61.2s-34.4,34.4,9.6,47.9c23,7.7,51.7,1.9,67-9.6c42.1-36.4,82.3-9.6,72.7,44c-7.7,34.4-19.1,44-45.9,38.3c-19.1-5.7-30.6-17.2-24.9-26.8c15.3-26.8-61.3-21.1-82.3,7.6c-11.5,11.5-24.9,68.9-30.6,126.3l-11.5,101.4l61.2-11.5c143.5-30.6,208.6-32.5,262.2-11.5c47.8,19.1,53.6,30.6,44,80.4c-5.7,30.6,0,76.6,13.4,103.4c21.1,36.4,21.1,51.7,3.8,68.9c-13.4,13.4-23,34.4-23,49.7c0,23,19.1,24.9,90,15.3c101.4-13.4,403.8,34.4,486.1,76.6c30.6,15.3,67,57.4,84.2,93.8c17.2,36.3,44,74.6,59.3,88c40.2,32.5,32.5,107.2-13.4,137.8c-28.7,21.1-38.3,45.9-32.5,91.9c5.7,55.5-3.8,68.9-74.7,118.7c-78.5,51.7-101.4,93.8-65.1,116.7c9.6,5.8,26.8-1.9,40.2-17.2c13.4-15.3,55.5-28.7,95.7-28.7s82.3-11.5,93.8-26.8c17.2-19.1,63.2-24.9,168.4-23c141.6,3.8,149.3,7.7,195.2,67c28.7,36.4,86.1,105.3,130.2,157c57.4,67,82.3,114.8,91.9,179.9c9.6,57.4,28.7,99.5,59.3,122.5c24.9,19.1,51.7,63.2,57.4,95.7c9.6,45.9,22.9,59.3,57.4,59.3c59.3,0,57.4-34.4-1.9-114.8c-59.3-80.4-61.3-93.8-5.7-45.9c21,19.1,65.1,91.8,97.6,160.8c30.6,68.9,93.8,164.6,141.6,216.3l84.2,90l-7.6,197.1c-5.7,172.3-3.8,201,24.9,216.3c19.1,9.6,95.7,63.1,172.3,118.7c76.6,53.6,160.8,99.5,185.6,99.5c45.9,0,68.9,15.3,139.7,84.2c28.7,28.7,51.7,32.6,124.4,21.1c126.3-17.2,233.5,3.8,245,49.8c5.7,19.1,34.5,47.9,65.1,61.2c36.3,15.3,51.7,34.5,47.8,55.5c-5.7,32.5,122.5,266,153.1,279.4c9.6,3.8,15.3,51.7,15.3,107.2c0,74.6,9.6,109.1,36.4,134c44,40.2,65.1,176.1,59.3,390.4c-3.8,183.7,30.6,363.7,63.2,331.1c11.5-11.5,28.7-21.1,36.4-21.1c21,0,130.1,195.2,130.1,233.5c0,19.1,24.9,45.9,55.5,61.2c91.9,47.8,210.5,199,243.1,312c30.6,105.3,26.8,156.9-24.9,317.7c-32.5,103.4-67,128.2-174.2,128.2c-65.1,0-93.8,15.3-206.7,116.7c-174.2,153.1-201,166.5-373.2,166.5c-95.7,0-164.6,9.6-204.8,30.6c-78.5,40.2-134,38.3-210.5-7.7c-82.3-49.8-84.2-49.8-68.9,28.7c13.4,78.5-17.2,130.1-68.9,114.8c-19.1-5.7-38.3,0-44,15.3c-5.7,15.3-34.4,34.5-65.1,40.2c-28.7,7.7-80.4,26.8-114.8,44c-84.2,40.2-158.8,26.8-195.2-36.4c-40.2-70.8-139.7-145.4-151.2-114.8c-3.8,13.4-42.1,23-91.9,23c-53.6,0-84.2,7.7-84.2,24.9c-1.9,61.3-30.6,74.7-95.7,42.1c-32.5-17.2-65.1-26.8-68.9-23c-19.1,19.1,72.7,181.8,114.8,204.8c44,23,164.6,176.1,164.6,210.5c0,9.6-17.2,21.1-36.4,28.7c-57.4,17.2-80.4,55.5-114.8,195.2c-24.9,99.5-42.1,132.1-70.8,135.9c-19.1,3.8-70.8,40.2-112.9,82.3c-105.3,99.5-273.7,153.1-468.9,143.5c-141.6-7.7-143.5-5.8-208.6,59.3c-42.1,44-76.6,63.2-99.5,57.4c-28.7-7.7-38.3,3.8-47.8,57.4c-19.1,99.5-149.3,178-298.6,178h-111l59.3,57.4c55.5,51.7,57.4,57.4,24.9,70.8c-21.1,7.7-47.8,24.9-63.2,40.2c-15.3,13.4-42.1,21.1-63.2,17.2c-21-5.7-55.5,7.7-84.2,34.4l-47.8,45.9l53.6,7.7c28.7,3.8,0,9.6-63.2,11.5c-91.9,1.9-128.2-5.7-166.5-36.4c-61.3-47.9-130.2-47.9-208.6-1.9c-49.8,30.6-82.3,36.4-179.9,26.8c-118.7-11.5-118.7-9.6-149.3,47.9c-44,84.2-126.3,95.7-289,40.2c-135.9-45.9-134-42.1-84.2-162.7c28.7-70.8,13.4-122.5-36.4-122.5c-55.5,0-91.9,99.5-61.3,170.3c13.4,32.5,17.2,82.3,9.6,114.8c-9.6,45.9-5.7,61.3,17.2,68.9c17.2,5.7,44,13.4,61.3,19.1c24.9,7.7,26.8,15.3,7.7,38.3c-34.4,42.1-84.2,34.5-130.1-19.1c-23-26.8-53.6-47.9-65.1-47.9c-13.4,0-3.8,17.2,23,38.3l47.8,36.4l-38.3,70.8c-21.1,40.2-57.4,84.2-82.3,99.5l-44,28.7L2998.9,4907.1z"/><path d="M3389.3,4794.2c0-3.8,17.2-17.2,38.3-28.7c30.6-17.2,34.4-15.3,26.8,9.6C3444.8,4799.9,3389.3,4817.1,3389.3,4794.2z"/><path d="M4564.5,4616.2c-11.5-7.7-24.9-28.7-32.5-45.9c-9.6-24.9-1.9-34.4,23-34.4c23,0,38.3,17.2,44,47.9C4608.5,4633.4,4600.8,4641,4564.5,4616.2z"/><path d="M6024.8,3129.1c-38.3-95.7,5.7-195.2,76.6-176.1c19.1,5.7,59.3,15.3,88,21.1c38.3,9.6,63.1,32.5,82.3,80.4c15.3,38.3,24.9,72.7,21.1,76.6c-3.8,5.7-63.1,13.4-132.1,21.1C6055.4,3161.6,6034.4,3157.8,6024.8,3129.1z"/><path d="M2905.1-2769.6c-5.7-9.6-15.3-59.3-23-112.9c-9.6-80.4-7.7-99.5,17.2-109.1c34.5-13.4,61.3,61.2,42.1,112.9c-7.7,17.2-1.9,44,9.6,57.4c11.5,13.4,15.3,34.5,7.7,45.9C2945.3-2752.4,2916.6-2750.5,2905.1-2769.6z"/><path d="M2949.1-4517c0-11.5,13.4-24.9,28.7-30.6c15.3-7.7,28.7-24.9,28.7-40.2c0-15.3,9.6-21.1,19.1-15.3c11.5,5.7,19.1,32.5,19.1,59.3c0,36.4-9.6,45.9-47.8,45.9C2970.2-4497.9,2949.1-4507.5,2949.1-4517z"/></g></g>
</svg>